<?xml version="1.0" encoding="UTF-8"?>
<svg version="1.1" xmlns="http://www.w3.org/2000/svg" width="512" height="512">
<path d="M0 0 C168.96 0 337.92 0 512 0 C512 168.96 512 337.92 512 512 C343.04 512 174.08 512 0 512 C0 343.04 0 174.08 0 0 Z " fill="#FED6C9" transform="translate(0,0)"/>
<path d="M0 0 C66 0 132 0 200 0 C200 5.61 200 11.22 200 17 C208.58 17 217.16 17 226 17 C226 24.26 226 31.52 226 39 C221.38 39 216.76 39 212 39 C212 40.65 212 42.3 212 44 C216.62 44 221.24 44 226 44 C226 46.31 226 48.62 226 51 C217.42 51 208.84 51 200 51 C200 55.29 200 59.58 200 64 C216.83 64 233.66 64 251 64 C251 67.3 251 70.6 251 74 C233.84 74 216.68 74 199 74 C199 79.94 199 85.88 199 92 C193.06 92 187.12 92 181 92 C181 99.92 181 107.84 181 116 C187.27 116 193.54 116 200 116 C200 117.32 200 118.64 200 120 C159.41 120 118.82 120 77 120 C77 120.66 77 121.32 77 122 C48.29 122.495 48.29 122.495 19 123 C18.67 123.66 18.34 124.32 18 125 C57.93 125 97.86 125 139 125 C139 124.01 139 123.02 139 122 C159.13 122 179.26 122 200 122 C200 124.64 200 127.28 200 130 C134 130 68 130 0 130 C0 125.71 0 121.42 0 117 C6.27 117 12.54 117 19 117 C19 115.68 19 114.36 19 113 C12.73 113 6.46 113 0 113 C0 108.38 0 103.76 0 99 C-8.91 99 -17.82 99 -27 99 C-27 96.36 -27 93.72 -27 91 C-18.09 91 -9.18 91 0 91 C0 82.42 0 73.84 0 65 C-14.52 65 -29.04 65 -44 65 C-44 61.04 -44 57.08 -44 53 C-29.48 53 -14.96 53 0 53 C0 49.04 0 45.08 0 41 C3.63 41 7.26 41 11 41 C11 35.72 11 30.44 11 25 C7.37 25 3.74 25 0 25 C0 22.03 0 19.06 0 16 C8.25 16 16.5 16 25 16 C25 12.7 25 9.4 25 6 C16.75 6 8.5 6 0 6 C0 4.02 0 2.04 0 0 Z " fill="#040304" transform="translate(88,199)"/>
<path d="M0 0 C1.42011604 -0.00299653 2.84023128 -0.00640019 4.26034546 -0.01017761 C8.09940238 -0.01897228 11.93843699 -0.02135383 15.77750301 -0.0219934 C18.1817415 -0.02270656 20.5859744 -0.02484591 22.99021149 -0.02749062 C31.3941941 -0.03672953 39.79816091 -0.04082739 48.20214844 -0.04003906 C56.00920922 -0.03943889 63.81620077 -0.04998267 71.62324405 -0.06578273 C78.34795667 -0.07890248 85.07264679 -0.08422109 91.7973721 -0.08358365 C95.80395271 -0.08332994 99.81047175 -0.08611065 103.81703949 -0.0967617 C107.58950698 -0.10651752 111.36185498 -0.10647119 115.13432693 -0.09924507 C117.15967648 -0.09771844 119.1850262 -0.10599365 121.21035767 -0.11468506 C140.26306978 -0.04989156 159.03517872 4.6200446 173.87988281 17.14526367 C174.86988281 17.47526367 175.85988281 17.80526367 176.87988281 18.14526367 C178.41503906 19.73901367 178.41503906 19.73901367 179.94238281 21.64526367 C182.05710049 24.32632768 182.05710049 24.32632768 184.87988281 26.14526367 C185.80949856 27.72905346 186.7302673 29.31858021 187.61035156 30.93041992 C189.09288449 33.51686968 190.73361495 35.97249848 192.37988281 38.45776367 C204.24053209 57.13575195 203.277354 77.20135823 203.06738281 98.58276367 C203.05058311 101.26049048 203.03862572 103.93821218 203.02636719 106.6159668 C202.99614371 113.12610374 202.93738194 119.63508432 202.87988281 126.14526367 C194.95988281 126.14526367 187.03988281 126.14526367 178.87988281 126.14526367 C178.87988281 118.88526367 178.87988281 111.62526367 178.87988281 104.14526367 C169.96988281 104.14526367 161.05988281 104.14526367 151.87988281 104.14526367 C151.87988281 98.53526367 151.87988281 92.92526367 151.87988281 87.14526367 C85.87988281 87.14526367 19.87988281 87.14526367 -48.12011719 87.14526367 C-48.12011719 89.12526367 -48.12011719 91.10526367 -48.12011719 93.14526367 C-39.87011719 93.14526367 -31.62011719 93.14526367 -23.12011719 93.14526367 C-23.12011719 96.44526367 -23.12011719 99.74526367 -23.12011719 103.14526367 C-31.37011719 103.14526367 -39.62011719 103.14526367 -48.12011719 103.14526367 C-48.12011719 106.11526367 -48.12011719 109.08526367 -48.12011719 112.14526367 C-44.49011719 112.14526367 -40.86011719 112.14526367 -37.12011719 112.14526367 C-37.12011719 117.42526367 -37.12011719 122.70526367 -37.12011719 128.14526367 C-43.06011719 128.14526367 -49.00011719 128.14526367 -55.12011719 128.14526367 C-55.12011719 131.77526367 -55.12011719 135.40526367 -55.12011719 139.14526367 C-65.02011719 139.14526367 -74.92011719 139.14526367 -85.12011719 139.14526367 C-85.24044362 122.526847 -85.24044362 122.526847 -85.26660156 115.3503418 C-85.2844179 110.48573786 -85.30531169 105.62130599 -85.34643555 100.75683594 C-85.37943926 96.82753193 -85.39705489 92.89841289 -85.40474892 88.96898079 C-85.41021993 87.48253537 -85.42089905 85.99609812 -85.43730736 84.5097332 C-85.58646016 70.41616551 -83.0928132 57.69751034 -79.12011719 44.14526367 C-78.46011719 44.14526367 -77.80011719 44.14526367 -77.12011719 44.14526367 C-76.74886719 42.84588867 -76.74886719 42.84588867 -76.37011719 41.52026367 C-74.25297795 35.80398773 -70.66799661 31.46989878 -66.68261719 26.95385742 C-65.0310397 25.09476508 -65.0310397 25.09476508 -63.38574219 22.74682617 C-60.5623692 19.50481512 -57.46127335 17.40160403 -53.87011719 15.08276367 C-52.92458984 14.45144531 -52.92458984 14.45144531 -51.95996094 13.80737305 C-40.2945479 6.14526367 -40.2945479 6.14526367 -36.12011719 6.14526367 C-36.12011719 5.48526367 -36.12011719 4.82526367 -36.12011719 4.14526367 C-33.95444175 3.66163671 -31.78751977 3.1835905 -29.62011719 2.70776367 C-28.41355469 2.44092773 -27.20699219 2.1740918 -25.96386719 1.89916992 C-17.24388768 0.18884874 -8.87146791 -0.00305134 0 0 Z " fill="#FEFEFE" transform="translate(136.1201171875,111.854736328125)"/>
<path d="M0 0 C9.9 0 19.8 0 30 0 C30 8.25 30 16.5 30 25 C23.4 25 16.8 25 10 25 C10 27.64 10 30.28 10 33 C18.91 33 27.82 33 37 33 C37 37.62 37 42.24 37 47 C43.27 47 49.54 47 56 47 C56 48.32 56 49.64 56 51 C49.73 51 43.46 51 37 51 C37 55.29 37 59.58 37 64 C103 64 169 64 237 64 C237 61.36 237 58.72 237 56 C216.87 56 196.74 56 176 56 C176 56.99 176 57.98 176 59 C136.07 59 96.14 59 55 59 C55.33 58.01 55.66 57.02 56 56 C75.14 56 94.28 56 114 56 C114 55.34 114 54.68 114 54 C154.59 54 195.18 54 237 54 C237 52.68 237 51.36 237 50 C231.06 50 225.12 50 219 50 C219 42.41 219 34.82 219 27 C227.91 27 236.82 27 246 27 C246 21.06 246 15.12 246 9 C259.86 9 273.72 9 288 9 C288.06322193 16.33140206 288.12328898 23.66179467 288.15525055 30.99323273 C288.17097596 34.40861388 288.19192523 37.82376516 288.22631836 41.23901367 C288.26568584 45.1736354 288.27980648 49.10816913 288.29296875 53.04296875 C288.30845261 54.24455124 288.32393646 55.44613373 288.33988953 56.68412781 C288.34148055 64.83061883 287.16313603 72.15285279 285 80 C284.80792969 80.70127014 284.61585938 81.40254028 284.41796875 82.12506104 C282.0779539 90.1052866 278.60072961 96.73320723 273.76953125 103.4765625 C271.99107939 105.87331383 271.99107939 105.87331383 270.921875 108.203125 C269.5604833 110.85668509 267.33495027 112.20388441 265 114 C264.67 114.66 264.34 115.32 264 116 C262.34956102 117.02656171 260.68010532 118.02274676 259 119 C257.45128934 120.1152831 255.90976782 121.24060639 254.375 122.375 C240.0359877 132.40597326 224.30641517 135.61894566 207.1105957 135.53344727 C205.5841947 135.54052808 204.0578007 135.54928203 202.53141785 135.55955505 C198.43180272 135.58182408 194.33257777 135.57916166 190.23292565 135.57023358 C186.78688204 135.56507582 183.34090872 135.57245514 179.89487237 135.57970566 C171.75057022 135.59663542 163.60645572 135.59321155 155.4621582 135.57641602 C147.11587829 135.55952413 138.77012259 135.57530452 130.42389995 135.6076389 C123.20886841 135.63451135 115.99399825 135.64156296 108.77892178 135.63312382 C104.49152217 135.62824286 100.20443693 135.63014229 95.91707802 135.65091133 C78.40314554 135.72742309 61.78012739 135.78247193 45 130 C45 129.34 45 128.68 45 128 C44.05125 127.690625 43.1025 127.38125 42.125 127.0625 C39 126 39 126 37 125 C37 124.34 37 123.68 37 123 C35.68 123 34.36 123 33 123 C32.67 122.34 32.34 121.68 32 121 C31.01 120.67 30.02 120.34 29 120 C27.29006566 118.3777546 25.62652316 116.70586575 24 115 C22.8553125 113.9171875 22.8553125 113.9171875 21.6875 112.8125 C20 111 20 111 20 109 C19.0409375 108.62875 19.0409375 108.62875 18.0625 108.25 C16 107 16 107 15.25 104.875 C15.1675 104.25625 15.085 103.6375 15 103 C14.34 103 13.68 103 13 103 C-0.05299539 78.31970046 -0.05299539 78.31970046 1 67 C0.34 67 -0.32 67 -1 67 C-0.67 59.41 -0.34 51.82 0 44 C1.98 44 3.96 44 6 44 C6 41.03 6 38.06 6 35 C4.02 35 2.04 35 0 35 C0 23.45 0 11.9 0 0 Z " fill="#FEFDFE" transform="translate(51,265)"/>
<path d="M0 0 C1.05960937 -0.02707031 1.05960937 -0.02707031 2.140625 -0.0546875 C11.6521102 0.19943615 22.25740291 6.42973747 29.5 12.3125 C32 15 32 15 32 18 C30.02 18.33 28.04 18.66 26 19 C26 19.33 26 19.66 26 20 C24.02 20 22.04 20 20 20 C20 20.99 20 21.98 20 23 C20.53625 23.061875 21.0725 23.12375 21.625 23.1875 C26.36270793 24.80829482 29.74197416 28.1087971 32.08203125 32.4453125 C32.67352798 33.66486646 33.25034934 34.89164406 33.8125 36.125 C34.11091797 36.74503906 34.40933594 37.36507812 34.71679688 38.00390625 C36.75221473 42.27690535 38.12945048 45.71187824 38.09765625 50.44921875 C38.09282227 51.72055664 38.09282227 51.72055664 38.08789062 53.01757812 C38.07532227 54.33918945 38.07532227 54.33918945 38.0625 55.6875 C38.05798828 56.58017578 38.05347656 57.47285156 38.04882812 58.39257812 C38.03704983 60.59511987 38.02060164 62.79752599 38 65 C37.34 65 36.68 65 36 65 C36.495 68.465 36.495 68.465 37 72 C35.515 72.495 35.515 72.495 34 73 C32.09304146 75.17294352 32.09304146 75.17294352 30.3125 77.8125 C29.68988281 78.68519531 29.06726563 79.55789062 28.42578125 80.45703125 C26.67396526 83.09560348 26.67396526 83.09560348 27 87 C26.4225 86.79375 25.845 86.5875 25.25 86.375 C22.48032433 85.91338739 21.35438733 86.57055055 19 88 C19 89.32 19 90.64 19 92 C16.69 92 14.38 92 12 92 C12 91.01 12 90.02 12 89 C10.68 89 9.36 89 8 89 C8 90.65 8 92.3 8 94 C-4.21 94 -16.42 94 -29 94 C-29 94.66 -29 95.32 -29 96 C-28.13375 96.268125 -27.2675 96.53625 -26.375 96.8125 C-23 98 -23 98 -20.1875 99.5 C-16.74084185 101.12195677 -13.58539845 101.81663846 -9.85546875 102.47265625 C-9.24316406 102.64667969 -8.63085938 102.82070312 -8 103 C-7.67 103.66 -7.34 104.32 -7 105 C-8.9363704 105.50435694 -10.87414146 106.00333874 -12.8125 106.5 C-13.89144531 106.7784375 -14.97039062 107.056875 -16.08203125 107.34375 C-19 108 -19 108 -22 108 C-22 108.99 -22 109.98 -22 111 C-21.01 111 -20.02 111 -19 111 C-19 112.65 -19 114.3 -19 116 C-20.65 115.67 -22.3 115.34 -24 115 C-24 113.68 -24 112.36 -24 111 C-30.93 111 -37.86 111 -45 111 C-45 112.65 -45 114.3 -45 116 C-41.7 116 -38.4 116 -35 116 C-35.33 116.99 -35.66 117.98 -36 119 C-36.66 119 -37.32 119 -38 119 C-38.27199219 119.58394531 -38.54398437 120.16789062 -38.82421875 120.76953125 C-39.98028408 122.96259871 -41.30446854 124.72586541 -42.8125 126.6875 C-47.37973887 133.35319997 -48.99554252 141.27485634 -51 149 C-52.98 149 -54.96 149 -57 149 C-57 143.72 -57 138.44 -57 133 C-57.66 133 -58.32 133 -59 133 C-59 132.34 -59 131.68 -59 131 C-58.34 131 -57.68 131 -57 131 C-57 117.14 -57 103.28 -57 89 C-56.01 89 -55.02 89 -54 89 C-54.34786708 87.02463255 -54.34786708 87.02463255 -55 85 C-55.66 84.67 -56.32 84.34 -57 84 C-57 79.38 -57 74.76 -57 70 C-54.03 70 -51.06 70 -48 70 C-44.93730082 76.12539836 -43.50307336 80.16725873 -44 87 C-43.071875 86.938125 -42.14375 86.87625 -41.1875 86.8125 C-40.135625 86.874375 -39.08375 86.93625 -38 87 C-37.5875 87.4846875 -37.175 87.969375 -36.75 88.46875 C-34.02566699 90.85254138 -31.35529784 90.52498634 -27.8125 90.6875 C-26.54019531 90.75324219 -25.26789063 90.81898438 -23.95703125 90.88671875 C-22.98121094 90.92410156 -22.00539063 90.96148437 -21 91 C-21 90.34 -21 89.68 -21 89 C-21.94875 88.71125 -22.8975 88.4225 -23.875 88.125 C-27 87 -27 87 -29 85 C-29.125 82.375 -29.125 82.375 -29 80 C-29.721875 80.165 -30.44375 80.33 -31.1875 80.5 C-34 80 -34 80 -35.48046875 78.46484375 C-37.88843529 74.96418651 -39.43884469 72.3138388 -38.8125 68 C-38.544375 67.01 -38.27625 66.02 -38 65 C-39.32 64.67 -40.64 64.34 -42 64 C-42 61.36 -42 58.72 -42 56 C-43.65 56 -45.3 56 -47 56 C-47 54.35 -47 52.7 -47 51 C-45.35 51 -43.7 51 -42 51 C-41.896875 49.72125 -41.79375 48.4425 -41.6875 47.125 C-41.10776122 41.98083898 -40.19201829 36.72127017 -38 32 C-37.01 31.67 -36.02 31.34 -35 31 C-33.65480487 29.56350045 -33.65480487 29.56350045 -32.375 27.8125 C-28.90932435 23.59795976 -24.7792102 20.60944877 -20 18 C-19.34 18 -18.68 18 -18 18 C-18 16.02 -18 14.04 -18 12 C-17.34 12 -16.68 12 -16 12 C-16 13.32 -16 14.64 -16 16 C-15.13375 15.835 -14.2675 15.67 -13.375 15.5 C-7.30238178 14.60733769 -1.12033868 14.92360188 5 15 C5 14.01 5 13.02 5 12 C9.29 11.67 13.58 11.34 18 11 C16.948125 10.525625 15.89625 10.05125 14.8125 9.5625 C14.22082031 9.29566406 13.62914062 9.02882812 13.01953125 8.75390625 C2.71537307 4.90728627 -10.44930132 5.74275946 -20.3203125 10.109375 C-25.39852137 11.7971762 -30.71579116 11.30243485 -36 11 C-30.82589413 5.21052716 -22.58181466 1.2282577 -14.875 0.125 C-9.90436231 -0.03534315 -4.97207263 -0.12933137 0 0 Z " fill="#FCFBFC" transform="translate(415,153)"/>
<path d="M0 0 C1.32 0 2.64 0 4 0 C5.0763319 11.0281932 4.9510329 21.82118366 4.5625 32.875 C4.50910855 34.54555205 4.45637029 36.2161251 4.40429688 37.88671875 C4.27703574 41.92476018 4.14102441 45.96241678 4 50 C3.67 50 3.34 50 3 50 C2.505 45.545 2.505 45.545 2 41 C1.15695312 41.02320313 0.31390625 41.04640625 -0.5546875 41.0703125 C-2.19824219 41.09738281 -2.19824219 41.09738281 -3.875 41.125 C-4.96554687 41.14820313 -6.05609375 41.17140625 -7.1796875 41.1953125 C-10 41 -10 41 -12 39 C-14.58064129 38.85502015 -17.04943884 38.81322455 -19.625 38.875 C-20.33140625 38.88402344 -21.0378125 38.89304687 -21.765625 38.90234375 C-23.51056098 38.92592397 -25.25532295 38.96179539 -27 39 C-21.555 39.495 -21.555 39.495 -16 40 C-16 40.33 -16 40.66 -16 41 C-17.98 41 -19.96 41 -22 41 C-22 41.99 -22 42.98 -22 44 C-21.2471875 44.09539062 -20.494375 44.19078125 -19.71875 44.2890625 C-14.99103947 45.52533163 -12.70482014 49.1033299 -10 53 C-6.95071644 58.74672672 -3.87721664 64.63982611 -3.8671875 71.23828125 C-3.86589844 72.05876953 -3.86460937 72.87925781 -3.86328125 73.72460938 C-3.86714844 74.57861328 -3.87101562 75.43261719 -3.875 76.3125 C-3.87113281 77.15490234 -3.86726563 77.99730469 -3.86328125 78.86523438 C-3.87030507 83.35696895 -4.09140807 87.57962814 -5 92 C-5.99 92 -6.98 92 -8 92 C-8.20625 92.66 -8.4125 93.32 -8.625 94 C-10.23786277 97.51897331 -12.3920493 100.16747854 -14.85546875 103.1328125 C-15.23316406 103.74898438 -15.61085938 104.36515625 -16 105 C-15.67 105.99 -15.34 106.98 -15 108 C-15.8971875 107.690625 -15.8971875 107.690625 -16.8125 107.375 C-19.28450846 106.69328085 -19.28450846 106.69328085 -22 109 C-22.495 110.485 -22.495 110.485 -23 112 C-25.31 111.67 -27.62 111.34 -30 111 C-30 110.34 -30 109.68 -30 109 C-31.32 109 -32.64 109 -34 109 C-34.103125 109.639375 -34.20625 110.27875 -34.3125 110.9375 C-34.539375 111.618125 -34.76625 112.29875 -35 113 C-38.00015912 114.00005304 -39.97423756 114.11575585 -43.10546875 114.09765625 C-44.08837891 114.09443359 -45.07128906 114.09121094 -46.08398438 114.08789062 C-47.10814453 114.07951172 -48.13230469 114.07113281 -49.1875 114.0625 C-50.74114258 114.05573242 -50.74114258 114.05573242 -52.32617188 114.04882812 C-54.88417266 114.0370401 -57.44205733 114.02058515 -60 114 C-60.33 113.01 -60.66 112.02 -61 111 C-62.98636298 110.29373761 -64.98848259 109.63106429 -67 109 C-69.375 107.6875 -69.375 107.6875 -71 106 C-71.25 103.3125 -71.25 103.3125 -71 101 C-72.65 101 -74.3 101 -76 101 C-81.5321244 92.55824616 -81.5321244 92.55824616 -80.8125 87.9375 C-80.544375 86.968125 -80.27625 85.99875 -80 85 C-81.32 84.67 -82.64 84.34 -84 84 C-84 81.69 -84 79.38 -84 77 C-85.65 77 -87.3 77 -89 77 C-89 75.35 -89 73.7 -89 72 C-87.35 72 -85.7 72 -84 72 C-83.96261719 71.41992188 -83.92523438 70.83984375 -83.88671875 70.2421875 C-83.4542792 65.10378811 -82.41136323 61.61304271 -80 57 C-80.04125 56.113125 -80.0825 55.22625 -80.125 54.3125 C-80.08375 53.549375 -80.0425 52.78625 -80 52 C-78.35065263 50.97168535 -76.68051546 49.97654777 -75 49 C-73.4932067 47.6766424 -72.01377611 46.32151555 -70.5625 44.9375 C-67.20211833 41.8749448 -64.55759047 39.93489035 -60 39 C-60 37.02 -60 35.04 -60 33 C-59.34 33 -58.68 33 -58 33 C-58 34.32 -58 35.64 -58 37 C-56.74316406 36.50886719 -56.74316406 36.50886719 -55.4609375 36.0078125 C-51.6687069 34.90352864 -48.56446457 34.80067048 -44.625 34.875 C-43.37976563 34.89304687 -42.13453125 34.91109375 -40.8515625 34.9296875 C-39.91054688 34.95289063 -38.96953125 34.97609375 -38 35 C-38 34.34 -38 33.68 -38 33 C-33.05 32.67 -28.1 32.34 -23 32 C-26.63 30.68 -30.26 29.36 -34 28 C-31.79724692 25.79724692 -30.40482252 25.32826863 -27.5 24.3125 C-16.30273947 19.94993096 -6.81155834 12.1843318 -1.23828125 1.50390625 C-0.62533203 0.75947266 -0.62533203 0.75947266 0 0 Z " fill="#FCFBFC" transform="translate(457,231)"/>
<path d="M0 0 C0 0.66 0 1.32 0 2 C0.66 1.484375 1.32 0.96875 2 0.4375 C6.24455908 -1.59635123 8.42518733 -1.03302222 13 0 C15 1.5625 15 1.5625 16 3 C16.66 2.01 17.32 1.02 18 0 C21.5 -0.3125 21.5 -0.3125 25 0 C25.66 0.66 26.32 1.32 27 2 C27.33 1.34 27.66 0.68 28 0 C30.79192205 -0.05380578 33.5828141 -0.09357669 36.375 -0.125 C37.1690625 -0.14175781 37.963125 -0.15851563 38.78125 -0.17578125 C40.85492015 -0.19335473 42.92883241 -0.10335168 45 0 C45.99 0.99 45.99 0.99 47 2 C47.33 1.34 47.66 0.68 48 0 C55.26 0 62.52 0 70 0 C70 0.66 70 1.32 70 2 C70.94359375 1.50242188 71.8871875 1.00484375 72.859375 0.4921875 C77.65908302 -1.55965143 82.12840103 -1.21943502 87.25 -0.875 C88.1471875 -0.83890625 89.044375 -0.8028125 89.96875 -0.765625 C96.46574378 -0.39603553 96.46574378 -0.39603553 98.76464844 1.30810547 C100.75341932 4.0318569 100.18413153 6.74700969 100 10 C98.68 10 97.36 10 96 10 C96 14.95 96 19.9 96 25 C94.72125 24.95875 93.4425 24.9175 92.125 24.875 C89.98128508 24.75787127 89.98128508 24.75787127 88 25 C87.34 25.66 86.68 26.32 86 27 C82.98892823 27.34553283 80.90687223 27.57248153 78 27 C75 24.5 75 24.5 73 22 C72.34 23.65 71.68 25.3 71 27 C67.72933434 27.08706892 64.45896635 27.14041241 61.1875 27.1875 C60.25873047 27.21263672 59.32996094 27.23777344 58.37304688 27.26367188 C57.48037109 27.27333984 56.58769531 27.28300781 55.66796875 27.29296875 C54.84578857 27.3086792 54.0236084 27.32438965 53.17651367 27.34057617 C50.52497566 26.92566921 49.66736408 26.04470249 48 24 C47.67 24.66 47.34 25.32 47 26 C44.69 26 42.38 26 40 26 C40 25.34 40 24.68 40 24 C39.34 24 38.68 24 38 24 C38 24.66 38 25.32 38 26 C31.375 26.25 31.375 26.25 28 24 C27.505 25.485 27.505 25.485 27 27 C24.69 27 22.38 27 20 27 C20 26.01 20 25.02 20 24 C17.03824877 24.61277612 15.61941217 25.25372522 13 27 C6.72381588 27.56037358 6.72381588 27.56037358 4.0625 25.5 C3.5365625 24.7575 3.5365625 24.7575 3 24 C2.34 24.99 1.68 25.98 1 27 C-5.62824207 27.99423631 -5.62824207 27.99423631 -8.859375 25.65234375 C-10.5 24 -10.5 24 -13 21 C-13.33 22.65 -13.66 24.3 -14 26 C-16.22855574 26.0814222 -18.45797655 26.13938079 -20.6875 26.1875 C-22.54955078 26.23970703 -22.54955078 26.23970703 -24.44921875 26.29296875 C-28.32281438 25.97336515 -29.97158487 25.38020106 -33 23 C-33.56762695 20.5480957 -33.56762695 20.5480957 -33.48828125 17.67578125 C-33.47216797 16.64775391 -33.45605469 15.61972656 -33.43945312 14.56054688 C-33.39755859 13.48869141 -33.35566406 12.41683594 -33.3125 11.3125 C-33.27866211 9.68731445 -33.27866211 9.68731445 -33.24414062 8.02929688 C-33.1851579 5.35148095 -33.10290307 2.67642973 -33 0 C-30.27076612 -0.0270817 -27.54180363 -0.04687847 -24.8125 -0.0625 C-24.04357422 -0.07087891 -23.27464844 -0.07925781 -22.48242188 -0.08789062 C-19.22519029 -0.10187016 -16.33085063 -0.07266978 -13.13671875 0.62890625 C-9.05847013 1.3371944 -5.10528932 -0.83693268 0 0 Z " fill="#24547B" transform="translate(162,250)"/>
<path d="M0 0 C66.33 0 132.66 0 201 0 C201 2.31 201 4.62 201 7 C137.31 7 73.62 7 8 7 C8 8.98 8 10.96 8 13 C16.25 13 24.5 13 33 13 C33 16.3 33 19.6 33 23 C24.75 23 16.5 23 8 23 C8 25.97 8 28.94 8 32 C5.69 32 3.38 32 1 32 C1 29.03 1 26.06 1 23 C-5.27 23 -11.54 23 -18 23 C-18 19.7 -18 16.4 -18 13 C-12.06 13 -6.12 13 0 13 C0 8.71 0 4.42 0 0 Z " fill="#7FF8E0" transform="translate(80,192)"/>
<path d="M0 0 C2.97 0 5.94 0 9 0 C9 6.6 9 13.2 9 20 C-57 20 -123 20 -191 20 C-191 18.02 -191 16.04 -191 14 C-127.97 14 -64.94 14 0 14 C0 11.36 0 8.72 0 6 C-20.13 6 -40.26 6 -61 6 C-61 6.99 -61 7.98 -61 9 C-100.93 9 -140.86 9 -182 9 C-181.67 8.01 -181.34 7.02 -181 6 C-161.86 6 -142.72 6 -123 6 C-123 5.34 -123 4.68 -123 4 C-82.41 4 -41.82 4 0 4 C0 2.68 0 1.36 0 0 Z " fill="#FE40AD" transform="translate(288,315)"/>
<path d="M0 0 C2.97 0 5.94 0 9 0 C12.06269918 6.12539836 13.49692664 10.16725873 13 17 C13.928125 16.938125 14.85625 16.87625 15.8125 16.8125 C16.864375 16.874375 17.91625 16.93625 19 17 C19.391875 17.495 19.78375 17.99 20.1875 18.5 C23.12991818 20.9351047 26.55122201 20.31135576 30.1875 20.1875 C30.93708984 20.17396484 31.68667969 20.16042969 32.45898438 20.14648438 C34.30629767 20.11118539 36.15324066 20.05737917 38 20 C38 20.99 38 21.98 38 23 C46.58 22.67 55.16 22.34 64 22 C64 20.68 64 19.36 64 18 C65.65 18 67.3 18 69 18 C67.68 18.33 66.36 18.66 65 19 C65 20.65 65 22.3 65 24 C52.79 24 40.58 24 28 24 C28 24.66 28 25.32 28 26 C28.86625 26.268125 29.7325 26.53625 30.625 26.8125 C34 28 34 28 36.8125 29.5 C40.25915815 31.12195677 43.41460155 31.81663846 47.14453125 32.47265625 C47.75683594 32.64667969 48.36914062 32.82070312 49 33 C49.33 33.66 49.66 34.32 50 35 C48.0636296 35.50435694 46.12585854 36.00333874 44.1875 36.5 C43.10855469 36.7784375 42.02960938 37.056875 40.91796875 37.34375 C38 38 38 38 35 38 C35 38.99 35 39.98 35 41 C35.99 41 36.98 41 38 41 C38 42.65 38 44.3 38 46 C36.35 45.67 34.7 45.34 33 45 C33 43.68 33 42.36 33 41 C26.07 41 19.14 41 12 41 C12 42.65 12 44.3 12 46 C15.3 46 18.6 46 22 46 C21.67 46.99 21.34 47.98 21 49 C20.34 49 19.68 49 19 49 C18.59201172 49.87591797 18.59201172 49.87591797 18.17578125 50.76953125 C17.01971592 52.96259871 15.69553146 54.72586541 14.1875 56.6875 C9.62026113 63.35319997 8.00445748 71.27485634 6 79 C4.02 79 2.04 79 0 79 C0 73.72 0 68.44 0 63 C-0.66 63 -1.32 63 -2 63 C-2 62.34 -2 61.68 -2 61 C-1.34 61 -0.68 61 0 61 C0 47.14 0 33.28 0 19 C0.99 19 1.98 19 3 19 C2.65213292 17.02463255 2.65213292 17.02463255 2 15 C1.34 14.67 0.68 14.34 0 14 C0 9.38 0 4.76 0 0 Z " fill="#F7FAF9" transform="translate(358,223)"/>
<path d="M0 0 C0.495 0.99 0.495 0.99 1 2 C-4.28 2 -9.56 2 -15 2 C-15 2.66 -15 3.32 -15 4 C-16.41152344 4.09087891 -16.41152344 4.09087891 -17.8515625 4.18359375 C-19.71941406 4.30927734 -19.71941406 4.30927734 -21.625 4.4375 C-22.85476563 4.51871094 -24.08453125 4.59992188 -25.3515625 4.68359375 C-28.61532388 4.96663944 -31.77943859 5.41038953 -35 6 C-35 4.68 -35 3.36 -35 2 C-35.66 2 -36.32 2 -37 2 C-36.79375 2.86625 -36.5875 3.7325 -36.375 4.625 C-37 8 -37 8 -38.98046875 9.48828125 C-40.74981729 10.48136492 -42.53051672 11.45441544 -44.3203125 12.41015625 C-47.65512527 14.38868219 -49.98081452 16.7890327 -52.52734375 19.6796875 C-54 21 -54 21 -57 21 C-56.7525 21.639375 -56.505 22.27875 -56.25 22.9375 C-55.92348854 26.93726539 -57.28676993 29.22452903 -59.0078125 32.7734375 C-60.21260874 35.47711411 -60.69889455 38.06422185 -61 41 C-62.65 41 -64.3 41 -66 41 C-66 42.65 -66 44.3 -66 46 C-64.35 46 -62.7 46 -61 46 C-60.67 48.31 -60.34 50.62 -60 53 C-58.515 53.495 -58.515 53.495 -57 54 C-57.12375 55.5159375 -57.12375 55.5159375 -57.25 57.0625 C-56.94189309 61.9151839 -55.55036224 63.93536018 -53 68 C-53 68.66 -53 69.32 -53 70 C-51.35 70 -49.7 70 -48 70 C-48 71.65 -48 73.3 -48 75 C-47.46375 75.268125 -46.9275 75.53625 -46.375 75.8125 C-45.199375 76.4003125 -45.199375 76.4003125 -44 77 C-42.948125 77.474375 -41.89625 77.94875 -40.8125 78.4375 C-38 80 -38 80 -37 83 C-42.61 83 -48.22 83 -54 83 C-54.33 84.32 -54.66 85.64 -55 87 C-56.98 87 -58.96 87 -61 87 C-61 85.02 -61 83.04 -61 81 C-59.515 80.505 -59.515 80.505 -58 80 C-59.2065625 79.5359375 -59.2065625 79.5359375 -60.4375 79.0625 C-63 77 -63 77 -63.44921875 75.11328125 C-63.56997859 73.57560593 -63.67044982 72.03624418 -63.75390625 70.49609375 C-64.1559301 66.41842324 -65.59936333 62.83652652 -67 59 C-72.28 59 -77.56 59 -83 59 C-83 57.35 -83 55.7 -83 54 C-79.37 54 -75.74 54 -72 54 C-72 51.36 -72 48.72 -72 46 C-73.65 46 -75.3 46 -77 46 C-77 44.02 -77 42.04 -77 40 C-74.69 40 -72.38 40 -70 40 C-69.85304688 38.96552734 -69.85304688 38.96552734 -69.703125 37.91015625 C-67.76280194 25.71622945 -62.79944474 15.79944474 -54 7 C-57.3 7 -60.6 7 -64 7 C-64 5.35 -64 3.7 -64 2 C-57.07 2 -50.14 2 -43 2 C-42.505 3.98 -42.505 3.98 -42 6 C-40.68 6.33 -39.36 6.66 -38 7 C-38 5.35 -38 3.7 -38 2 C-38.99 2 -39.98 2 -41 2 C-41 1.01 -41 0.02 -41 -1 C-27.31511568 -5.35428138 -13.31479203 -5.99056324 0 0 Z " fill="#0A100F" transform="translate(434,262)"/>
<path d="M0 0 C1.32 0.99 2.64 1.98 4 3 C-0.95 3 -5.9 3 -11 3 C-11 3.99 -11 4.98 -11 6 C-21.395 6.495 -21.395 6.495 -32 7 C-32 5.68 -32 4.36 -32 3 C-32.66 3 -33.32 3 -34 3 C-33.89429688 3.91910156 -33.78859375 4.83820313 -33.6796875 5.78515625 C-34 9 -34 9 -36.1953125 10.87109375 C-37.16210938 11.38800781 -38.12890625 11.90492188 -39.125 12.4375 C-42.91244024 14.61844245 -45.77497053 16.50700605 -48.5 19.9375 C-49.325 20.948125 -50.15 21.95875 -51 23 C-51.99 23 -52.98 23 -54 23 C-54.103125 23.9075 -54.20625 24.815 -54.3125 25.75 C-55.08543168 31.26282152 -56.59567091 36.62115462 -58 42 C-59.65 42 -61.3 42 -63 42 C-63 43.65 -63 45.3 -63 47 C-61.35 47 -59.7 47 -58 47 C-57.67 49.64 -57.34 52.28 -57 55 C-55.515 55.495 -55.515 55.495 -54 56 C-54.0825 57.03125 -54.165 58.0625 -54.25 59.125 C-53.96041626 63.61354796 -52.64054611 65.45176617 -50 69 C-50 69.66 -50 70.32 -50 71 C-48.35 71 -46.7 71 -45 71 C-44.79375 71.928125 -44.5875 72.85625 -44.375 73.8125 C-43.25553808 77.26004095 -43.25553808 77.26004095 -39.875 78.875 C-38.92625 79.24625 -37.9775 79.6175 -37 80 C-37 80.66 -37 81.32 -37 82 C-39.27024968 82.08097324 -41.54132075 82.13917704 -43.8125 82.1875 C-45.70935547 82.23970703 -45.70935547 82.23970703 -47.64453125 82.29296875 C-51 82 -51 82 -52.75 80.53125 C-53.36875 79.77328125 -53.36875 79.77328125 -54 79 C-57.10839021 78.2730774 -57.10839021 78.2730774 -60 78 C-60.12117188 77.26394531 -60.24234375 76.52789062 -60.3671875 75.76953125 C-60.53476562 74.79371094 -60.70234375 73.81789063 -60.875 72.8125 C-61.03742188 71.84957031 -61.19984375 70.88664062 -61.3671875 69.89453125 C-62.00829419 66.58167916 -62.00829419 66.58167916 -64 62 C-69.28 61.67 -74.56 61.34 -80 61 C-80 59.02 -80 57.04 -80 55 C-76.37 55 -72.74 55 -69 55 C-69 52.36 -69 49.72 -69 47 C-70.65 47 -72.3 47 -74 47 C-74 45.02 -74 43.04 -74 41 C-71.69 41 -69.38 41 -67 41 C-66.79503906 39.94039062 -66.59007812 38.88078125 -66.37890625 37.7890625 C-66.10692334 36.40101178 -65.83477956 35.01299256 -65.5625 33.625 C-65.36043945 32.57699219 -65.36043945 32.57699219 -65.15429688 31.5078125 C-64.11328125 26.2265625 -64.11328125 26.2265625 -63 24 C-62.34 24 -61.68 24 -61 24 C-60.9175 23.278125 -60.835 22.55625 -60.75 21.8125 C-59.83749583 18.39060935 -58.41828071 16.56053252 -56 14 C-55.01 13.67 -54.02 13.34 -53 13 C-52.34 11.68 -51.68 10.36 -51 9 C-54.3 8.67 -57.6 8.34 -61 8 C-61 6.35 -61 4.7 -61 3 C-60.44127197 2.9906543 -59.88254395 2.98130859 -59.30688477 2.97167969 C-56.72459677 2.91731012 -54.14399402 2.83380291 -51.5625 2.75 C-50.68400391 2.73582031 -49.80550781 2.72164062 -48.90039062 2.70703125 C-43.26682889 2.49915074 -39.02284716 1.50784883 -33.98803711 -1.05371094 C-24.79802408 -5.4280804 -9.03820437 -4.41020816 0 0 Z " fill="#0D1211" transform="translate(431,162)"/>
<path d="M0 0 C5.28 0 10.56 0 16 0 C16.66 1.32 17.32 2.64 18 4 C21.3 4 24.6 4 28 4 C28 4.33 28 4.66 28 5 C25.69 5 23.38 5 21 5 C21.433125 5.55429687 21.86625 6.10859375 22.3125 6.6796875 C22.869375 7.40414063 23.42625 8.12859375 24 8.875 C24.556875 9.59429687 25.11375 10.31359375 25.6875 11.0546875 C27 13 27 13 27 15 C31.29 15 35.58 15 40 15 C40 17.31 40 19.62 40 22 C37.03 22 34.06 22 31 22 C31.32742188 22.76570313 31.65484375 23.53140625 31.9921875 24.3203125 C33.33772909 29.2331039 33.21422457 33.80978999 33.125 38.875 C33.11597656 39.84953125 33.10695313 40.8240625 33.09765625 41.828125 C33.0742177 44.21885672 33.03835089 46.60946099 33 49 C35.97 49 38.94 49 42 49 C42 50.65 42 52.3 42 54 C37.71 54.33 33.42 54.66 29 55 C28.67 56.32 28.34 57.64 28 59 C27.01 59.495 27.01 59.495 26 60 C25.5978125 60.8353125 25.5978125 60.8353125 25.1875 61.6875 C23.54972654 64.87684831 21.34249974 67.28763188 19 70 C18.67 69.34 18.34 68.68 18 68 C17.01 68 16.02 68 15 68 C15 68.99 15 69.98 15 71 C15.66 71 16.32 71 17 71 C17 71.66 17 72.32 17 73 C4.36883838 83.4021331 -7.46810765 87.30239561 -23.81787109 86.24072266 C-28.59005386 85.7142769 -32.73768109 84.13115946 -37 82 C-37.65742188 81.69191406 -38.31484375 81.38382812 -38.9921875 81.06640625 C-40.34639828 80.41426327 -41.67775185 79.71472873 -43 79 C-43 78.34 -43 77.68 -43 77 C-30.79 76.67 -18.58 76.34 -6 76 C-6 74.35 -6 72.7 -6 71 C-4.68 71 -3.36 71 -2 71 C-2 71.66 -2 72.32 -2 73 C0.31 73.33 2.62 73.66 5 74 C5.0825 73.38125 5.165 72.7625 5.25 72.125 C6 70 6 70 8.0625 68.75 C8.701875 68.5025 9.34125 68.255 10 68 C10 68.66 10 69.32 10 70 C10.99 70 11.98 70 13 70 C12.34 68.68 11.68 67.36 11 66 C11.39832031 65.55269531 11.79664063 65.10539062 12.20703125 64.64453125 C14.64844617 61.85858576 16.83532807 59.28665114 18.6875 56.0625 C19.120625 55.381875 19.55375 54.70125 20 54 C20.99 54 21.98 54 23 54 C24.34154026 34.70839803 24.34154026 34.70839803 18 17 C17.27876953 15.824375 17.27876953 15.824375 16.54296875 14.625 C13.63211205 10.32399802 10.96653212 7.89201224 6 6 C6 5.01 6 4.02 6 3 C4.02 2.34 2.04 1.68 0 1 C0 0.67 0 0.34 0 0 Z " fill="#110B0E" transform="translate(429,269)"/>
<path d="M0 0 C2.29141286 -0.05384521 4.58318188 -0.09272087 6.875 -0.125 C8.78925781 -0.15980469 8.78925781 -0.15980469 10.7421875 -0.1953125 C14 0 14 0 16 2 C18.43252661 2.46162427 18.43252661 2.46162427 21.125 2.625 C22.03507812 2.69976562 22.94515625 2.77453125 23.8828125 2.8515625 C24.58148438 2.90054688 25.28015625 2.94953125 26 3 C26 3.33 26 3.66 26 4 C23.69 4 21.38 4 19 4 C19.433125 4.54269531 19.86625 5.08539063 20.3125 5.64453125 C20.869375 6.35996094 21.42625 7.07539063 22 7.8125 C22.556875 8.52019531 23.11375 9.22789062 23.6875 9.95703125 C25 12 25 12 25 15 C27.64 15 30.28 15 33 15 C33 16.98 33 18.96 33 21 C31.68 21 30.36 21 29 21 C29.16242188 21.639375 29.32484375 22.27875 29.4921875 22.9375 C30.16229354 26.97875488 30.1449122 30.91136184 30.125 35 C30.12886719 35.7940625 30.13273437 36.588125 30.13671875 37.40625 C30.13542969 38.1796875 30.13414062 38.953125 30.1328125 39.75 C30.13168457 40.44609375 30.13055664 41.1421875 30.12939453 41.859375 C30 44 30 44 29 49 C32.63 49 36.26 49 40 49 C40 50.32 40 51.64 40 53 C38.64455078 53.02126953 38.64455078 53.02126953 37.26171875 53.04296875 C36.08222656 53.09066406 34.90273438 53.13835937 33.6875 53.1875 C32.51574219 53.22230469 31.34398437 53.25710937 30.13671875 53.29296875 C26.83576507 53.68782878 26.83576507 53.68782878 25.140625 56.39453125 C24.40376256 58.07770676 23.70765491 59.77958691 23.0625 61.5 C21.79561468 64.48090663 20.18012265 66.61549085 18 69 C17.34 69 16.68 69 16 69 C16 68.34 16 67.68 16 67 C15.01 67 14.02 67 13 67 C13 67.99 13 68.98 13 70 C13.66 70 14.32 70 15 70 C12.33417232 76.94638528 3.63750325 80.36264907 -2.75 83.375 C-13.20750703 87.70607371 -24.54722414 86.78488065 -35 83 C-38.41080705 81.46582173 -41.72180316 79.79909718 -45 78 C-45 77.34 -45 76.68 -45 76 C-32.79 76 -20.58 76 -8 76 C-8 74.35 -8 72.7 -8 71 C-6.68 71 -5.36 71 -4 71 C-4 71.99 -4 72.98 -4 74 C-3.1028125 73.7215625 -3.1028125 73.7215625 -2.1875 73.4375 C0 73 0 73 3 74 C3 72.68 3 71.36 3 70 C5.5 68.25 5.5 68.25 8 67 C8 67.66 8 68.32 8 69 C8.99 69 9.98 69 11 69 C10.75765625 68.45859375 10.5153125 67.9171875 10.265625 67.359375 C9.85802145 63.73889638 11.61863593 62.10693481 13.75 59.25 C14.46671875 58.26515625 15.1834375 57.2803125 15.921875 56.265625 C16.60765625 55.51796875 17.2934375 54.7703125 18 54 C18.99 54 19.98 54 21 54 C20.505 50.535 20.505 50.535 20 47 C20.66 47 21.32 47 22 47 C21.87112668 35.79973672 21.63987924 26.0052095 16 16 C15.40832031 14.94039062 15.40832031 14.94039062 14.8046875 13.859375 C11.92655596 9.32298224 8.69098286 7.2995014 4 5 C4 4.01 4 3.02 4 2 C2.68 1.34 1.36 0.68 0 0 Z " fill="#070507" transform="translate(431,171)"/>
<path d="M0 0 C1.32 0 2.64 0 4 0 C5.0763319 11.0281932 4.9510329 21.82118366 4.5625 32.875 C4.50910855 34.54555205 4.45637029 36.2161251 4.40429688 37.88671875 C4.27703574 41.92476018 4.14102441 45.96241678 4 50 C3.67 50 3.34 50 3 50 C2.505 45.545 2.505 45.545 2 41 C1.15695312 41.02320313 0.31390625 41.04640625 -0.5546875 41.0703125 C-2.19824219 41.09738281 -2.19824219 41.09738281 -3.875 41.125 C-4.96554687 41.14820313 -6.05609375 41.17140625 -7.1796875 41.1953125 C-10 41 -10 41 -12 39 C-14.20250992 38.53993654 -14.20250992 38.53993654 -16.625 38.375 C-17.44226563 38.30023438 -18.25953125 38.22546875 -19.1015625 38.1484375 C-19.72804688 38.09945312 -20.35453125 38.05046875 -21 38 C-21 35.69 -21 33.38 -21 31 C-22.8253125 30.814375 -22.8253125 30.814375 -24.6875 30.625 C-28.06479059 30.21108694 -30.89756695 29.45426549 -34 28 C-31.79724692 25.79724692 -30.40482252 25.32826863 -27.5 24.3125 C-16.30273947 19.94993096 -6.81155834 12.1843318 -1.23828125 1.50390625 C-0.82964844 1.00761719 -0.42101562 0.51132813 0 0 Z " fill="#FDFAFC" transform="translate(457,231)"/>
<path d="M0 0 C7.92 0 15.84 0 24 0 C24 5.94 24 11.88 24 18 C10.14 18 -3.72 18 -18 18 C-18 14.04 -18 10.08 -18 6 C-12.06 6 -6.12 6 0 6 C0 4.02 0 2.04 0 0 Z " fill="#FDFCFD" transform="translate(315,244)"/>
<path d="M0 0 C1.32 0.99 2.64 1.98 4 3 C-0.95 3 -5.9 3 -11 3 C-11 3.99 -11 4.98 -11 6 C-21.395 6.495 -21.395 6.495 -32 7 C-32 5.68 -32 4.36 -32 3 C-32.66 3 -33.32 3 -34 3 C-33.89429688 3.91910156 -33.78859375 4.83820313 -33.6796875 5.78515625 C-34 9 -34 9 -36.1953125 10.87109375 C-37.16210938 11.38800781 -38.12890625 11.90492188 -39.125 12.4375 C-42.91244024 14.61844245 -45.77497053 16.50700605 -48.5 19.9375 C-49.325 20.948125 -50.15 21.95875 -51 23 C-51.99 23 -52.98 23 -54 23 C-54.144375 24.093125 -54.28875 25.18625 -54.4375 26.3125 C-55 30 -55 30 -56 33 C-56.66 33 -57.32 33 -58 33 C-58.33 32.34 -58.66 31.68 -59 31 C-61.02463255 30.34786708 -61.02463255 30.34786708 -63 30 C-62.00075261 23.42286417 -60.3471274 19.08931988 -56 14 C-55.01 13.67 -54.02 13.34 -53 13 C-52.34 11.68 -51.68 10.36 -51 9 C-54.3 8.67 -57.6 8.34 -61 8 C-61 6.35 -61 4.7 -61 3 C-60.44127197 2.9906543 -59.88254395 2.98130859 -59.30688477 2.97167969 C-56.72459677 2.91731012 -54.14399402 2.83380291 -51.5625 2.75 C-50.68400391 2.73582031 -49.80550781 2.72164062 -48.90039062 2.70703125 C-43.26682889 2.49915074 -39.02284716 1.50784883 -33.98803711 -1.05371094 C-24.79802408 -5.4280804 -9.03820437 -4.41020816 0 0 Z " fill="#0D1010" transform="translate(431,162)"/>
<path d="M0 0 C0.495 0.99 0.495 0.99 1 2 C-4.28 2 -9.56 2 -15 2 C-15 2.66 -15 3.32 -15 4 C-16.41152344 4.09087891 -16.41152344 4.09087891 -17.8515625 4.18359375 C-19.71941406 4.30927734 -19.71941406 4.30927734 -21.625 4.4375 C-22.85476563 4.51871094 -24.08453125 4.59992188 -25.3515625 4.68359375 C-28.61532388 4.96663944 -31.77943859 5.41038953 -35 6 C-35 4.68 -35 3.36 -35 2 C-35.66 2 -36.32 2 -37 2 C-36.79375 2.86625 -36.5875 3.7325 -36.375 4.625 C-37 8 -37 8 -38.98046875 9.48828125 C-40.74981729 10.48136492 -42.53051672 11.45441544 -44.3203125 12.41015625 C-47.65512527 14.38868219 -49.98081452 16.7890327 -52.52734375 19.6796875 C-54 21 -54 21 -57 21 C-56.7525 21.639375 -56.505 22.27875 -56.25 22.9375 C-55.87359619 27.54844669 -57.94534972 30.95242713 -60 35 C-60.33 34.34 -60.66 33.68 -61 33 C-62.65 33 -64.3 33 -66 33 C-66 32.34 -66 31.68 -66 31 C-66.66 31 -67.32 31 -68 31 C-65.97000632 21.25180119 -60.99154504 13.99154504 -54 7 C-57.3 7 -60.6 7 -64 7 C-64 5.35 -64 3.7 -64 2 C-57.07 2 -50.14 2 -43 2 C-42.67 3.32 -42.34 4.64 -42 6 C-40.68 6.33 -39.36 6.66 -38 7 C-38 5.35 -38 3.7 -38 2 C-38.99 2 -39.98 2 -41 2 C-41 1.01 -41 0.02 -41 -1 C-27.31511568 -5.35428138 -13.31479203 -5.99056324 0 0 Z " fill="#101616" transform="translate(434,262)"/>
<path d="M0 0 C40.59 0 81.18 0 123 0 C123 0.66 123 1.32 123 2 C102.87 2 82.74 2 62 2 C62 2.99 62 3.98 62 5 C22.07 5 -17.86 5 -59 5 C-58.67 4.01 -58.34 3.02 -58 2 C-38.86 2 -19.72 2 0 2 C0 1.34 0 0.68 0 0 Z " fill="#5D4A61" transform="translate(165,319)"/>
<path d="M0 0 C1.37918793 0.12744971 2.75733135 0.28117302 4.125 0.5 C2.31196948 5.12322782 0.57797026 8.82425747 -2.875 12.5 C-3.535 12.5 -4.195 12.5 -4.875 12.5 C-4.875 11.84 -4.875 11.18 -4.875 10.5 C-5.865 10.5 -6.855 10.5 -7.875 10.5 C-7.875 11.49 -7.875 12.48 -7.875 13.5 C-7.215 13.5 -6.555 13.5 -5.875 13.5 C-8.54082768 20.44638528 -17.23749675 23.86264907 -23.625 26.875 C-34.08250703 31.20607371 -45.42222414 30.28488065 -55.875 26.5 C-59.28580705 24.96582173 -62.59680316 23.29909718 -65.875 21.5 C-65.875 20.84 -65.875 20.18 -65.875 19.5 C-53.665 19.5 -41.455 19.5 -28.875 19.5 C-28.875 17.85 -28.875 16.2 -28.875 14.5 C-27.555 14.5 -26.235 14.5 -24.875 14.5 C-24.875 15.49 -24.875 16.48 -24.875 17.5 C-24.276875 17.314375 -23.67875 17.12875 -23.0625 16.9375 C-20.875 16.5 -20.875 16.5 -17.875 17.5 C-17.875 16.18 -17.875 14.86 -17.875 13.5 C-15.375 11.75 -15.375 11.75 -12.875 10.5 C-12.875 11.16 -12.875 11.82 -12.875 12.5 C-11.885 12.5 -10.895 12.5 -9.875 12.5 C-10.08898437 11.92765625 -10.30296875 11.3553125 -10.5234375 10.765625 C-10.99160896 7.74852005 -10.23110017 6.72300024 -8.5 4.25 C-5.86728546 0.89701451 -4.27432056 -0.02705266 0 0 Z " fill="#160911" transform="translate(451.875,227.5)"/>
<path d="M0 0 C0.495 0.99 0.495 0.99 1 2 C3.32156597 2.40729228 5.6568787 2.74438677 8 3 C8 3.66 8 4.32 8 5 C-4.63116162 15.4021331 -16.46810765 19.30239561 -32.81787109 18.24072266 C-37.59005386 17.7142769 -41.73768109 16.13115946 -46 14 C-46.65742188 13.69191406 -47.31484375 13.38382812 -47.9921875 13.06640625 C-49.34639828 12.41426327 -50.67775185 11.71472873 -52 11 C-52 10.34 -52 9.68 -52 9 C-39.79 8.67 -27.58 8.34 -15 8 C-15 6.35 -15 4.7 -15 3 C-13.68 3 -12.36 3 -11 3 C-11 3.66 -11 4.32 -11 5 C-8.69 5.33 -6.38 5.66 -4 6 C-3.896875 5.38125 -3.79375 4.7625 -3.6875 4.125 C-3 2 -3 2 0 0 Z " fill="#0F070D" transform="translate(438,337)"/>
<path d="M0 0 C66.33 0 132.66 0 201 0 C201 1.98 201 3.96 201 6 C200.34 6 199.68 6 199 6 C199 4.68 199 3.36 199 2 C133.99 2 68.98 2 2 2 C2 5.96 2 9.92 2 14 C-4.27 14 -10.54 14 -17 14 C-17 16.97 -17 19.94 -17 23 C-17.33 23 -17.66 23 -18 23 C-18 19.7 -18 16.4 -18 13 C-12.06 13 -6.12 13 0 13 C0 8.71 0 4.42 0 0 Z " fill="#A9FEEE" transform="translate(80,192)"/>
<path d="M0 0 C4.29 0 8.58 0 13 0 C13 0.33 13 0.66 13 1 C9.04 1 5.08 1 1 1 C0.67 2.32 0.34 3.64 0 5 C2.31 5 4.62 5 7 5 C7 5.33 7 5.66 7 6 C4.36 6 1.72 6 -1 6 C-1.33 7.65 -1.66 9.3 -2 11 C-2.66 11 -3.32 11 -4 11 C-4.38671875 12.11568359 -4.38671875 12.11568359 -4.78125 13.25390625 C-9.37769263 23.61063435 -21.1694605 29.01601237 -31.125 32.875 C-33.07986907 33.59283876 -35.03701931 34.30464947 -37 35 C-37 35.33 -37 35.66 -37 36 C-40.47909371 36.05883728 -43.95805674 36.09387399 -47.4375 36.125 C-48.41138672 36.14175781 -49.38527344 36.15851563 -50.38867188 36.17578125 C-56.58848075 36.21725154 -62.00004295 35.57599699 -68 34 C-68 33.34 -68 32.68 -68 32 C-68.53625 31.896875 -69.0725 31.79375 -69.625 31.6875 C-72.62502044 30.81907303 -75.2379535 29.44379704 -78 28 C-78 26.02 -78 24.04 -78 22 C-76.83952148 21.97494385 -75.67904297 21.9498877 -74.48339844 21.92407227 C-70.17453118 21.82984228 -65.86581927 21.72965965 -61.55712891 21.62768555 C-59.69290808 21.58439567 -57.82864912 21.54271639 -55.96435547 21.50268555 C-53.2834118 21.44483887 -50.602659 21.38118595 -47.921875 21.31640625 C-47.08944275 21.29969376 -46.2570105 21.28298126 -45.39935303 21.26576233 C-44.61884583 21.24581711 -43.83833862 21.22587189 -43.03417969 21.20532227 C-42.35023132 21.18977798 -41.66628296 21.1742337 -40.96160889 21.15821838 C-38.88571227 20.99078184 -37.00325255 20.55834972 -35 20 C-35 20.66 -35 21.32 -35 22 C-38.63233102 23.21077701 -41.95121987 23.12444164 -45.73046875 23.09765625 C-46.48088943 23.0962413 -47.23131012 23.09482635 -48.00447083 23.09336853 C-50.3988546 23.0877756 -52.79314453 23.07522444 -55.1875 23.0625 C-56.81184761 23.05748408 -58.43619668 23.05292134 -60.06054688 23.04882812 C-64.04040069 23.03780848 -68.02018444 23.02054873 -72 23 C-72 23.66 -72 24.32 -72 25 C-71.44441406 25.12375 -70.88882812 25.2475 -70.31640625 25.375 C-67.75722595 26.06550396 -65.38940753 26.99408922 -62.9375 28 C-52.83366779 32.13269528 -40.45530984 32.97874821 -29.9375 29.4375 C-25.24160267 27.40090178 -21.16226897 24.57269417 -17.09375 21.48828125 C-15 20 -15 20 -12 19 C-12 18.34 -12 17.68 -12 17 C-12.66 17 -13.32 17 -14 17 C-14 16.01 -14 15.02 -14 14 C-12.68 14.33 -11.36 14.66 -10 15 C-6.535 10.545 -6.535 10.545 -3 6 C-4.32 5.67 -5.64 5.34 -7 5 C-5.02 5 -3.04 5 -1 5 C-0.67 3.35 -0.34 1.7 0 0 Z " fill="#F6C2E1" transform="translate(458,323)"/>
<path d="M0 0 C1.05960937 -0.02707031 1.05960937 -0.02707031 2.140625 -0.0546875 C11.6521102 0.19943615 22.25740291 6.42973747 29.5 12.3125 C32 15 32 15 32 18 C28.37 17.67 24.74 17.34 21 17 C21 15.02 21 13.04 21 11 C20.26136719 10.86722656 19.52273438 10.73445312 18.76171875 10.59765625 C16.2971984 10.06431592 14.16322665 9.32383956 11.8125 8.4375 C1.29746001 5.25780228 -10.32129423 5.68613327 -20.3203125 10.109375 C-25.39852137 11.7971762 -30.71579116 11.30243485 -36 11 C-30.82589413 5.21052716 -22.58181466 1.2282577 -14.875 0.125 C-9.90436231 -0.03534315 -4.97207263 -0.12933137 0 0 Z " fill="#FAFAF9" transform="translate(415,153)"/>
<path d="M0 0 C7.59 0 15.18 0 23 0 C23 5.28 23 10.56 23 16 C15.41 16 7.82 16 0 16 C0 10.72 0 5.44 0 0 Z " fill="#101010" transform="translate(52,224)"/>
<path d="M0 0 C0.66 0 1.32 0 2 0 C2 2.31 2 4.62 2 7 C0.02 7.33 -1.96 7.66 -4 8 C1.445 8.495 1.445 8.495 7 9 C7 9.33 7 9.66 7 10 C5.02 10 3.04 10 1 10 C0.67 10.66 0.34 11.32 0 12 C-0.495 11.505 -0.495 11.505 -1 11 C-2.51469448 10.76807135 -4.03754562 10.58784762 -5.5625 10.4375 C-6.38878906 10.35371094 -7.21507812 10.26992188 -8.06640625 10.18359375 C-8.70449219 10.12300781 -9.34257812 10.06242187 -10 10 C-10.33 10.66 -10.66 11.32 -11 12 C-11 11.34 -11 10.68 -11 10 C-14.3 10 -17.6 10 -21 10 C-19.68 9.34 -18.36 8.68 -17 8 C-27.68986953 6.88129272 -35.12379867 9.21306482 -44 15 C-47.95376832 18.22420393 -51.3649736 21.09492079 -53 26 C-53.66 26 -54.32 26 -55 26 C-55.20496094 26.68707031 -55.40992188 27.37414062 -55.62109375 28.08203125 C-55.89050781 28.98308594 -56.15992188 29.88414062 -56.4375 30.8125 C-56.83775391 32.15248047 -56.83775391 32.15248047 -57.24609375 33.51953125 C-57.80387873 35.35473055 -58.39344575 37.18033726 -59 39 C-59.66 39 -60.32 39 -61 39 C-60.49639655 33.96396546 -59.24380538 30.48761076 -57 26 C-57.04125 25.113125 -57.0825 24.22625 -57.125 23.3125 C-57.08375 22.549375 -57.0425 21.78625 -57 21 C-55.35065263 19.97168535 -53.68051546 18.97654777 -52 18 C-50.4932067 16.6766424 -49.01377611 15.32151555 -47.5625 13.9375 C-44.20211833 10.8749448 -41.55759047 8.93489035 -37 8 C-37 6.02 -37 4.04 -37 2 C-36.34 2 -35.68 2 -35 2 C-35 3.32 -35 4.64 -35 6 C-33.74316406 5.50886719 -33.74316406 5.50886719 -32.4609375 5.0078125 C-28.6687069 3.90352864 -25.56446457 3.80067048 -21.625 3.875 C-20.37976563 3.89304687 -19.13453125 3.91109375 -17.8515625 3.9296875 C-16.44003906 3.96449219 -16.44003906 3.96449219 -15 4 C-15 3.34 -15 2.68 -15 2 C-10.05 1.67 -5.1 1.34 0 1 C0 0.67 0 0.34 0 0 Z " fill="#BFF9ED" transform="translate(434,262)"/>
<path d="M0 0 C1.32 0.99 2.64 1.98 4 3 C-0.95 3 -5.9 3 -11 3 C-11 3.99 -11 4.98 -11 6 C-21.395 6.495 -21.395 6.495 -32 7 C-32 5.68 -32 4.36 -32 3 C-32.99 3 -33.98 3 -35 3 C-35 4.65 -35 6.3 -35 8 C-36.65 8 -38.3 8 -40 8 C-40.33 6.02 -40.66 4.04 -41 2 C-39.58521865 1.35004703 -38.16808513 0.70521278 -36.75 0.0625 C-35.96109375 -0.29714844 -35.1721875 -0.65679687 -34.359375 -1.02734375 C-24.60988944 -5.04658531 -9.50285668 -4.63693609 0 0 Z " fill="#121615" transform="translate(431,162)"/>
<path d="M0 0 C0 1.98 0 3.96 0 6 C2.97 6 5.94 6 9 6 C6.44931155 8.35448165 5.28982642 8.98327924 1.75 9.1875 C0.8425 9.125625 -0.065 9.06375 -1 9 C-1.33 9.66 -1.66 10.32 -2 11 C-2.495 10.505 -2.495 10.505 -3 10 C-4.51469448 9.76807135 -6.03754562 9.58784762 -7.5625 9.4375 C-8.38878906 9.35371094 -9.21507812 9.26992187 -10.06640625 9.18359375 C-10.70449219 9.12300781 -11.34257812 9.06242188 -12 9 C-12.33 9.66 -12.66 10.32 -13 11 C-13 10.34 -13 9.68 -13 9 C-16.3 9 -19.6 9 -23 9 C-23 8.67 -23 8.34 -23 8 C-30.46352028 7.43171165 -35.59634365 7.65911826 -41.953125 11.75390625 C-44.86641319 13.52745383 -47.69536951 14.22657584 -51 15 C-47.89973691 11.72257902 -45.02901106 9.06895163 -41 7 C-40.34 7 -39.68 7 -39 7 C-39 5.02 -39 3.04 -39 1 C-38.34 1 -37.68 1 -37 1 C-37 2.32 -37 3.64 -37 5 C-36.13375 4.835 -35.2675 4.67 -34.375 4.5 C-28.30238178 3.60733769 -22.12033868 3.92360188 -16 4 C-16 3.01 -16 2.02 -16 1 C-13.52085964 0.83293398 -11.04168987 0.66632824 -8.5625 0.5 C-7.85544922 0.45230469 -7.14839844 0.40460938 -6.41992188 0.35546875 C-1.11328125 0 -1.11328125 0 0 0 Z " fill="#CFF9F1" transform="translate(436,164)"/>
<path d="M0 0 C3.6875 -0.3125 3.6875 -0.3125 7 0 C7 1.32 7 2.64 7 4 C8.65 4 10.3 4 12 4 C12 4.33 12 4.66 12 5 C9.36 5 6.72 5 4 5 C3.731875 5.53625 3.46375 6.0725 3.1875 6.625 C1.79166667 9.41666667 0.39583333 12.20833333 -1 15 C-1.66 15 -2.32 15 -3 15 C-3.20496094 16.05960938 -3.40992188 17.11921875 -3.62109375 18.2109375 C-3.89307666 19.59898822 -4.16522044 20.98700744 -4.4375 22.375 C-4.57220703 23.07367188 -4.70691406 23.77234375 -4.84570312 24.4921875 C-5.88671875 29.7734375 -5.88671875 29.7734375 -7 32 C-8.98 32 -10.96 32 -13 32 C-12.50285555 22.38854071 -10.29623268 11.68573158 -3 5 C-2.566875 4.0925 -2.13375 3.185 -1.6875 2.25 C-1.130625 1.5075 -0.57375 0.765 0 0 Z " fill="#EEFAF7" transform="translate(371,171)"/>
<path d="M0 0 C10.1394112 -0.07167069 20.24354409 0.14463584 30.375 0.5 C31.80468024 0.54839218 33.23436774 0.59657024 34.6640625 0.64453125 C38.10946183 0.76056577 41.55475529 0.8794517 45 1 C45 2.65 45 4.3 45 6 C35.1 6 25.2 6 15 6 C15 7.98 15 9.96 15 12 C14.67 12 14.34 12 14 12 C14 9.69 14 7.38 14 5 C9.38 5 4.76 5 0 5 C0 3.35 0 1.7 0 0 Z " fill="#F743AA" transform="translate(300,238)"/>
<path d="M0 0 C0.495 0.99 0.495 0.99 1 2 C-4.28 2 -9.56 2 -15 2 C-15 2.66 -15 3.32 -15 4 C-16.41152344 4.09087891 -16.41152344 4.09087891 -17.8515625 4.18359375 C-19.09679687 4.26738281 -20.34203125 4.35117187 -21.625 4.4375 C-22.85476563 4.51871094 -24.08453125 4.59992188 -25.3515625 4.68359375 C-28.61532388 4.96663944 -31.77943859 5.41038953 -35 6 C-35 4.35 -35 2.7 -35 1 C-35.66 0.67 -36.32 0.34 -37 0 C-35 -3 -35 -3 -32.34765625 -3.66796875 C-21.04353002 -4.78914813 -10.55080537 -4.74699618 0 0 Z " fill="#0C0C0D" transform="translate(434,262)"/>
<path d="M0 0 C14.52 0 29.04 0 44 0 C44 8.58 44 17.16 44 26 C41.69 26 39.38 26 37 26 C37 17.75 37 9.5 37 1 C24.79 1 12.58 1 0 1 C0 0.67 0 0.34 0 0 Z " fill="#7CDAC8" transform="translate(44,264)"/>
<path d="M0 0 C2.97 0 5.94 0 9 0 C9 5.94 9 11.88 9 18 C0 19.125 0 19.125 -3.71875 19.09765625 C-4.42966797 19.09515869 -5.14058594 19.09266113 -5.87304688 19.09008789 C-6.73994141 19.08098389 -7.60683594 19.07187988 -8.5 19.0625 C-11.305 19.041875 -14.11 19.02125 -17 19 C-17 26.59 -17 34.18 -17 42 C-17.33 42 -17.66 42 -18 42 C-18 34.08 -18 26.16 -18 18 C-12.06 18 -6.12 18 0 18 C0 12.06 0 6.12 0 0 Z " fill="#D74298" transform="translate(287,273)"/>
<path d="M0 0 C0.99 0 1.98 0 3 0 C3 1.65 3 3.3 3 5 C3.53625 5.268125 4.0725 5.53625 4.625 5.8125 C5.40875 6.204375 6.1925 6.59625 7 7 C8.5778125 7.7115625 8.5778125 7.7115625 10.1875 8.4375 C13 10 13 10 14 13 C8.39 13 2.78 13 -3 13 C-3.33 14.32 -3.66 15.64 -4 17 C-5.98 17 -7.96 17 -10 17 C-10 15.02 -10 13.04 -10 11 C-9.01 10.67 -8.02 10.34 -7 10 C-7.66 9.01 -8.32 8.02 -9 7 C-8.01 7 -7.02 7 -6 7 C-6 5.02 -6 3.04 -6 1 C-4.7934375 1.0309375 -4.7934375 1.0309375 -3.5625 1.0625 C-1.06645115 1.29633621 -1.06645115 1.29633621 0 0 Z " fill="#101A18" transform="translate(383,332)"/>
<path d="M0 0 C4.29 0 8.58 0 13 0 C13 0.33 13 0.66 13 1 C9.04 1 5.08 1 1 1 C0.67 2.32 0.34 3.64 0 5 C2.31 5 4.62 5 7 5 C7 5.33 7 5.66 7 6 C4.36 6 1.72 6 -1 6 C-1.33 7.65 -1.66 9.3 -2 11 C-2.66 11 -3.32 11 -4 11 C-4.38671875 12.11568359 -4.38671875 12.11568359 -4.78125 13.25390625 C-8.31617857 21.21882542 -16.50143906 26.17184266 -24 30 C-24.95084473 30.51844482 -24.95084473 30.51844482 -25.92089844 31.04736328 C-32.1367698 34.18030694 -37.4875091 34.55065413 -44.375 34.375 C-45.35855469 34.37371094 -46.34210938 34.37242187 -47.35546875 34.37109375 C-54.57672038 34.28218641 -54.57672038 34.28218641 -58 32 C-57.0867395 31.98598145 -57.0867395 31.98598145 -56.1550293 31.97167969 C-40.91938326 31.67766098 -29.57294309 30.94896822 -17.09375 21.48828125 C-15 20 -15 20 -12 19 C-12 18.34 -12 17.68 -12 17 C-12.66 17 -13.32 17 -14 17 C-14 16.01 -14 15.02 -14 14 C-12.68 14.33 -11.36 14.66 -10 15 C-7.69 12.03 -5.38 9.06 -3 6 C-4.32 5.67 -5.64 5.34 -7 5 C-5.02 5 -3.04 5 -1 5 C-0.67 3.35 -0.34 1.7 0 0 Z " fill="#D44E96" transform="translate(458,323)"/>
<path d="M0 0 C4.29 0 8.58 0 13 0 C13 0.33 13 0.66 13 1 C9.04 1 5.08 1 1 1 C1 2.32 1 3.64 1 5 C2.98 5 4.96 5 7 5 C7 5.33 7 5.66 7 6 C4.36 6 1.72 6 -1 6 C-1.24621094 6.88816406 -1.49242187 7.77632812 -1.74609375 8.69140625 C-5.65390557 19.00267296 -17.19665628 27.73431227 -27.0546875 32.21875 C-35.00884402 35.41319037 -41.56044274 34.95202323 -50 34 C-50 33.67 -50 33.34 -50 33 C-49.030625 32.9484375 -48.06125 32.896875 -47.0625 32.84375 C-34.28884973 31.86969286 -22.7043897 27.60611925 -13 19 C-12.67 18.34 -12.34 17.68 -12 17 C-12.66 17 -13.32 17 -14 17 C-14 16.01 -14 15.02 -14 14 C-13.01 14 -12.02 14 -11 14 C-11 14.66 -11 15.32 -11 16 C-10.34 16 -9.68 16 -9 16 C-8.7525 15.46375 -8.505 14.9275 -8.25 14.375 C-6.70303025 11.43575748 -4.86985631 8.74245592 -3 6 C-4.32 5.67 -5.64 5.34 -7 5 C-6.21625 4.9175 -5.4325 4.835 -4.625 4.75 C-3.75875 4.5025 -2.8925 4.255 -2 4 C-1.34 2.68 -0.68 1.36 0 0 Z " fill="#D64896" transform="translate(458,224)"/>
<path d="M0 0 C4.29 0 8.58 0 13 0 C13 4.29 13 8.58 13 13 C8.71 13 4.42 13 0 13 C0 8.71 0 4.42 0 0 Z " fill="#FF54B5" transform="translate(302,199)"/>
<path d="M0 0 C0.66 0 1.32 0 2 0 C2 1.32 2 2.64 2 4 C2.83789062 3.67257812 3.67578125 3.34515625 4.5390625 3.0078125 C8.3312931 1.90352864 11.43553543 1.80067048 15.375 1.875 C16.62023437 1.89304687 17.86546875 1.91109375 19.1484375 1.9296875 C20.55996094 1.96449219 20.55996094 1.96449219 22 2 C22.33 1.34 22.66 0.68 23 0 C23 0.99 23 1.98 23 3 C15.08 3.495 15.08 3.495 7 4 C7 4.66 7 5.32 7 6 C6.0821875 6.4125 5.164375 6.825 4.21875 7.25 C-3.30649401 10.74763419 -9.87454628 14.2054504 -15 21 C-15.33 21.99 -15.66 22.98 -16 24 C-16.66 24 -17.32 24 -18 24 C-18.20496094 24.68707031 -18.40992188 25.37414062 -18.62109375 26.08203125 C-18.89050781 26.98308594 -19.15992188 27.88414062 -19.4375 28.8125 C-19.70433594 29.70582031 -19.97117187 30.59914063 -20.24609375 31.51953125 C-20.80387873 33.35473055 -21.39344575 35.18033726 -22 37 C-22.66 37 -23.32 37 -24 37 C-23.49639655 31.96396546 -22.24380538 28.48761076 -20 24 C-20.04125 23.113125 -20.0825 22.22625 -20.125 21.3125 C-20.08375 20.549375 -20.0425 19.78625 -20 19 C-18.35065263 17.97168535 -16.68051546 16.97654777 -15 16 C-13.4932067 14.6766424 -12.01377611 13.32151555 -10.5625 11.9375 C-7.20211833 8.8749448 -4.55759047 6.93489035 0 6 C0 4.02 0 2.04 0 0 Z " fill="#70BFB0" transform="translate(397,264)"/>
<path d="M0 0 C2.86724686 0.57344937 3.8614515 0.8614515 6 3 C8.74485593 3.14507695 11.38480543 3.18652423 14.125 3.125 C15.25615234 3.11146484 15.25615234 3.11146484 16.41015625 3.09765625 C18.27357254 3.0740687 20.13682593 3.03819719 22 3 C22 3.99 22 4.98 22 6 C30.58 5.67 39.16 5.34 48 5 C48 3.68 48 2.36 48 1 C49.65 1 51.3 1 53 1 C51.68 1.33 50.36 1.66 49 2 C49 3.65 49 5.3 49 7 C36.79 7 24.58 7 12 7 C11.67 7.66 11.34 8.32 11 9 C10.34 8.67 9.68 8.34 9 8 C9 7.34 9 6.68 9 6 C8.01 6 7.02 6 6 6 C5.67 7.65 5.34 9.3 5 11 C3.02 11 1.04 11 -1 11 C-1 8.69 -1 6.38 -1 4 C-0.01 3.67 0.98 3.34 2 3 C1.34 2.01 0.68 1.02 0 0 Z " fill="#B3A8BF" transform="translate(374,240)"/>
<path d="M0 0 C3.96 0 7.92 0 12 0 C12 3.96 12 7.92 12 12 C8.04 12 4.08 12 0 12 C0 8.04 0 4.08 0 0 Z " fill="#8CFFE8" transform="translate(59,274)"/>
<path d="M0 0 C11.55 0 23.1 0 35 0 C35 1.32 35 2.64 35 4 C23.45 4 11.9 4 0 4 C0 2.68 0 1.36 0 0 Z " fill="#F139A2" transform="translate(72,312)"/>
<path d="M0 0 C2.31 0 4.62 0 7 0 C7 3.96 7 7.92 7 12 C-7.52 12 -22.04 12 -37 12 C-37 11.67 -37 11.34 -37 11 C-24.79 11 -12.58 11 0 11 C0 7.37 0 3.74 0 0 Z " fill="#82CEBE" transform="translate(81,240)"/>
<path d="M0 0 C6.1534481 5.0675455 9.5115221 12.53456631 12 20 C12.0806622 21.48123547 12.10761193 22.96582204 12.09765625 24.44921875 C12.09443359 25.29677734 12.09121094 26.14433594 12.08789062 27.01757812 C12.07951172 27.89865234 12.07113281 28.77972656 12.0625 29.6875 C12.05798828 30.58017578 12.05347656 31.47285156 12.04882812 32.39257812 C12.03704983 34.59511987 12.02060164 36.79752599 12 39 C11.34 39 10.68 39 10 39 C10 39.66 10 40.32 10 41 C9.34 41 8.68 41 8 41 C8.01571045 40.38068604 8.0314209 39.76137207 8.04760742 39.12329102 C8.1106403 36.26978995 8.14920437 33.41643609 8.1875 30.5625 C8.21263672 29.58861328 8.23777344 28.61472656 8.26367188 27.61132812 C8.34232825 19.77190918 7.50964771 12.03437606 2 6 C1.01 6.33 0.02 6.66 -1 7 C-0.67 4.69 -0.34 2.38 0 0 Z " fill="#E749A5" transform="translate(441,179)"/>
<path d="M0 0 C2.97 0 5.94 0 9 0 C9 4.29 9 8.58 9 13 C6.03 13 3.06 13 0 13 C0 8.71 0 4.42 0 0 Z " fill="#F43EA6" transform="translate(288,250)"/>
<path d="M0 0 C2.5625 0.25 2.5625 0.25 5 1 C6.22691067 3.45382134 6.20175931 5.19984103 6.25 7.9375 C6.28867188 9.25041016 6.28867188 9.25041016 6.328125 10.58984375 C6 13 6 13 4.6171875 14.83203125 C3 16 3 16 0.875 15.75 C-1 15 -1 15 -2 14 C-2.12514928 12.02380553 -2.1757276 10.04261827 -2.1875 8.0625 C-2.20167969 6.98097656 -2.21585938 5.89945312 -2.23046875 4.78515625 C-2 2 -2 2 0 0 Z " fill="#1C5079" transform="translate(168,254)"/>
<path d="M0 0 C2.31 0 4.62 0 7 0 C7 5.28 7 10.56 7 16 C4.69 16 2.38 16 0 16 C0 10.72 0 5.44 0 0 Z " fill="#4E423E" transform="translate(42,224)"/>
<path d="M0 0 C0.99 0.33 1.98 0.66 3 1 C2.34 1.66 1.68 2.32 1 3 C3.31 3 5.62 3 8 3 C8 3.66 8 4.32 8 5 C7.01 5.495 7.01 5.495 6 6 C5.731875 6.556875 5.46375 7.11375 5.1875 7.6875 C3.54972654 10.87684831 1.34249974 13.28763188 -1 16 C-1.33 15.34 -1.66 14.68 -2 14 C-2.99 14 -3.98 14 -5 14 C-5 14.66 -5 15.32 -5 16 C-5.66 16 -6.32 16 -7 16 C-7.66 14.68 -8.32 13.36 -9 12 C-8.60167969 11.55269531 -8.20335937 11.10539062 -7.79296875 10.64453125 C-4.82015875 7.25220061 -2.1717806 3.98159776 0 0 Z " fill="#240C19" transform="translate(449,323)"/>
<path d="M0 0 C0.99 0 1.98 0 3 0 C3.20625 0.928125 3.4125 1.85625 3.625 2.8125 C4.74446192 6.26004095 4.74446192 6.26004095 8.125 7.875 C9.07375 8.24625 10.0225 8.6175 11 9 C11 9.66 11 10.32 11 11 C8.72975032 11.08097324 6.45867925 11.13917704 4.1875 11.1875 C2.29064453 11.23970703 2.29064453 11.23970703 0.35546875 11.29296875 C-3 11 -3 11 -4.9375 9.6875 C-6.53147879 7.15588663 -6.19428181 4.91422715 -6 2 C-4.02 2 -2.04 2 0 2 C0 1.34 0 0.68 0 0 Z " fill="#070909" transform="translate(383,233)"/>
<path d="M0 0 C4.95096902 4.4137671 7.58274654 10.84446146 8.23974609 17.38769531 C8.90912224 32.18175551 8.90912224 32.18175551 7 36 C5.68 36 4.36 36 3 36 C3.23976563 35.01773438 3.23976563 35.01773438 3.484375 34.015625 C5.15449946 24.24792742 4.863347 14.14462455 1 5 C0.62770641 3.34160126 0.2706431 1.67798725 0 0 Z " fill="#E54DA5" transform="translate(445,283)"/>
<path d="M0 0 C2.97 0 5.94 0 9 0 C9 3.63 9 7.26 9 11 C6.03 11 3.06 11 0 11 C0 7.37 0 3.74 0 0 Z " fill="#FF45AF" transform="translate(288,205)"/>
<path d="M0 0 C2.31 0 4.62 0 7 0 C7 4.62 7 9.24 7 14 C4.69 14 2.38 14 0 14 C0 9.38 0 4.76 0 0 Z " fill="#81EEDB" transform="translate(81,298)"/>
<path d="M0 0 C3.3 0 6.6 0 10 0 C10 2.97 10 5.94 10 9 C6.7 9 3.4 9 0 9 C0 6.03 0 3.06 0 0 Z " fill="#1B1B1B" transform="translate(156,341)"/>
<path d="M0 0 C2.97 0 5.94 0 9 0 C9 3.3 9 6.6 9 10 C6.03 10 3.06 10 0 10 C0 6.7 0 3.4 0 0 Z " fill="#222222" transform="translate(302,287)"/>
<path d="M0 0 C0.66 0 1.32 0 2 0 C2 1.32 2 2.64 2 4 C2.86625 3.835 3.7325 3.67 4.625 3.5 C10.69761822 2.60733769 16.87966132 2.92360188 23 3 C23 3.66 23 4.32 23 5 C22.03320312 5.02578125 21.06640625 5.0515625 20.0703125 5.078125 C11.31743974 5.45943827 3.15229527 6.03594674 -4.06640625 11.58984375 C-6.61401603 13.44779755 -8.90844145 13.64868653 -12 14 C-8.89973691 10.72257902 -6.02901106 8.06895163 -2 6 C-1.34 6 -0.68 6 0 6 C0 4.02 0 2.04 0 0 Z " fill="#85DECD" transform="translate(397,165)"/>
<path d="M0 0 C2.86724686 0.57344937 3.8614515 0.8614515 6 3 C8.74485593 3.14507695 11.38480543 3.18652423 14.125 3.125 C15.25615234 3.11146484 15.25615234 3.11146484 16.41015625 3.09765625 C18.27357254 3.0740687 20.13682593 3.03819719 22 3 C22.33 3.99 22.66 4.98 23 6 C17.39 6 11.78 6 6 6 C5.67 7.32 5.34 8.64 5 10 C3.02 10 1.04 10 -1 10 C-1 8.02 -1 6.04 -1 4 C-0.01 3.67 0.98 3.34 2 3 C1.34 2.01 0.68 1.02 0 0 Z " fill="#8ADACC" transform="translate(374,339)"/>
<path d="M0 0 C0.66 0.33 1.32 0.66 2 1 C-2.02792319 7.52139945 -9.72082556 11.18469613 -16.875 13.4375 C-22.48579428 14.6230444 -28.36308125 13.63587193 -34 13 C-34 12.67 -34 12.34 -34 12 C-33.030625 11.9484375 -32.06125 11.896875 -31.0625 11.84375 C-20.10394754 11.00566196 -8.05075479 8.05075479 0 0 Z " fill="#DD3796" transform="translate(442,245)"/>
<path d="M0 0 C3.96 0 7.92 0 12 0 C14 8.75 14 8.75 14 11 C11.875 11.4375 11.875 11.4375 9 11 C6.66537246 8.916878 4.72024819 6.61288556 3 4 C3 3.34 3 2.68 3 2 C2.01 1.34 1.02 0.68 0 0 Z " fill="#DCDBDC" transform="translate(447,272)"/>
<path d="M0 0 C2.31 0 4.62 0 7 0 C7.33 4.95 7.66 9.9 8 15 C3.38 15 -1.24 15 -6 15 C-6 14.67 -6 14.34 -6 14 C-2.37 14 1.26 14 5 14 C5 11.36 5 8.72 5 6 C3.35 6 1.7 6 0 6 C0 4.02 0 2.04 0 0 Z " fill="#84CBBB" transform="translate(357,302)"/>
<path d="M0 0 C2.31 0 4.62 0 7 0 C7.33 4.95 7.66 9.9 8 15 C3.38 15 -1.24 15 -6 15 C-6 14.67 -6 14.34 -6 14 C-2.37 14 1.26 14 5 14 C5 11.36 5 8.72 5 6 C3.35 6 1.7 6 0 6 C0 4.02 0 2.04 0 0 Z " fill="#8AD3C2" transform="translate(357,203)"/>
<path d="M0 0 C3.15179419 0.70933651 6.06396371 1.73899002 9.0625 2.9375 C10.34833984 3.44603516 10.34833984 3.44603516 11.66015625 3.96484375 C14 5 14 5 17 7 C17 7.33 17 7.66 17 8 C22.94 8.66 28.88 9.32 35 10 C35 10.33 35 10.66 35 11 C31.3958502 11.02900455 27.79173038 11.04680018 24.1875 11.0625 C22.65125977 11.07506836 22.65125977 11.07506836 21.08398438 11.08789062 C19.60961914 11.09272461 19.60961914 11.09272461 18.10546875 11.09765625 C17.19949951 11.10289307 16.29353027 11.10812988 15.36010742 11.11352539 C13 11 13 11 10 10 C9.855625 9.36320312 9.71125 8.72640625 9.5625 8.0703125 C9.20361785 5.84765201 9.20361785 5.84765201 7.1875 4.8046875 C6.465625 4.49789063 5.74375 4.19109375 5 3.875 C1.09339408 2.18678815 1.09339408 2.18678815 0 0 Z " fill="#FEF1F5" transform="translate(386,348)"/>
<path d="M0 0 C3.63 0 7.26 0 11 0 C11 0.99 11 1.98 11 3 C14.3 3 17.6 3 21 3 C16.78492722 6.16130459 15.93928888 6.3367697 11 6 C10.67 6.66 10.34 7.32 10 8 C8.02 7.34 6.04 6.68 4 6 C4 5.34 4 4.68 4 4 C2.68 3.67 1.36 3.34 0 3 C0 2.01 0 1.02 0 0 Z " fill="#74D1BF" transform="translate(424,167)"/>
<path d="M0 0 C0.33 0 0.66 0 1 0 C1 1.65 1 3.3 1 5 C0.01 5.33 -0.98 5.66 -2 6 C-3.90695854 8.17294352 -3.90695854 8.17294352 -5.6875 10.8125 C-6.31011719 11.68519531 -6.93273437 12.55789062 -7.57421875 13.45703125 C-9.32603474 16.09560348 -9.32603474 16.09560348 -9 20 C-10.65 19.67 -12.3 19.34 -14 19 C-13.39212833 15.63794437 -12.1832736 13.65485595 -10.0625 11 C-8.01634748 8.42597029 -6.38115104 5.9891578 -5 3 C-3.35 3 -1.7 3 0 3 C0 2.01 0 1.02 0 0 Z " fill="#E274B3" transform="translate(451,220)"/>
<path d="M0 0 C-6.88009071 3.77944603 -12.59547421 4.57340401 -20.375 4.375 C-21.35855469 4.37371094 -22.34210938 4.37242187 -23.35546875 4.37109375 C-30.57672038 4.28218641 -30.57672038 4.28218641 -34 2 C-33.38068604 1.98018066 -32.76137207 1.96036133 -32.12329102 1.93994141 C-29.26932611 1.84364769 -26.41599143 1.73439903 -23.5625 1.625 C-22.58861328 1.5940625 -21.61472656 1.563125 -20.61132812 1.53125 C-15.15278598 1.31217807 -10.13031662 0.76957446 -4.85522461 -0.68212891 C-3 -1 -3 -1 0 0 Z " fill="#D856A4" transform="translate(434,353)"/>
<path d="M0 0 C2.64 0 5.28 0 8 0 C8 2.64 8 5.28 8 8 C5.36 8 2.72 8 0 8 C0 5.36 0 2.72 0 0 Z " fill="#2A2A2A" transform="translate(232,178)"/>
<path d="M0 0 C2 2 2 2 2.22705078 3.87939453 C2.21657715 4.62302246 2.20610352 5.36665039 2.1953125 6.1328125 C2.18886719 6.93847656 2.18242187 7.74414062 2.17578125 8.57421875 C2.15902344 9.41597656 2.14226562 10.25773438 2.125 11.125 C2.11597656 11.97449219 2.10695313 12.82398438 2.09765625 13.69921875 C2.07405647 15.79959884 2.03818483 17.89983444 2 20 C2.94875 19.95875 3.8975 19.9175 4.875 19.875 C8 20 8 20 10 22 C6.37 22 2.74 22 -1 22 C-0.67 14.74 -0.34 7.48 0 0 Z " fill="#C76290" transform="translate(461,198)"/>
<path d="M0 0 C0.99 0.33 1.98 0.66 3 1 C2.525625 1.598125 2.05125 2.19625 1.5625 2.8125 C-0.16465744 5.00382924 -0.16465744 5.00382924 -1 8 C-1.66 8 -2.32 8 -3 8 C-3.20496094 9.05960938 -3.40992188 10.11921875 -3.62109375 11.2109375 C-3.89307666 12.59898822 -4.16522044 13.98700744 -4.4375 15.375 C-4.57220703 16.07367188 -4.70691406 16.77234375 -4.84570312 17.4921875 C-5.88671875 22.7734375 -5.88671875 22.7734375 -7 25 C-7.66 25 -8.32 25 -9 25 C-8.54378159 15.87563174 -5.83014276 7.17687164 0 0 Z " fill="#86EFDA" transform="translate(371,178)"/>
<path d="M0 0 C0.66 0 1.32 0 2 0 C2 5.94 2 11.88 2 18 C1.01 18 0.02 18 -1 18 C-1.86375896 16.38007835 -2.71575854 14.75388139 -3.5625 13.125 C-4.03816406 12.22007812 -4.51382813 11.31515625 -5.00390625 10.3828125 C-5.49697266 9.20332031 -5.49697266 9.20332031 -6 8 C-5.67 7.34 -5.34 6.68 -5 6 C-4.54625 6.804375 -4.0925 7.60875 -3.625 8.4375 C-2.25274335 11.08856572 -2.25274335 11.08856572 0 12 C0 8.04 0 4.08 0 0 Z " fill="#9CB3C6" transform="translate(193,253)"/>
<path d="M0 0 C1.32 0 2.64 0 4 0 C4 4.62 4 9.24 4 14 C2.68 14 1.36 14 0 14 C0 9.38 0 4.76 0 0 Z " fill="#000000" transform="translate(43,226)"/>
<path d="M0 0 C3.63 0 7.26 0 11 0 C11 0.99 11 1.98 11 3 C9.35 3.33 7.7 3.66 6 4 C9.63 4.33 13.26 4.66 17 5 C17 5.33 17 5.66 17 6 C15.02 6 13.04 6 11 6 C10.67 6.66 10.34 7.32 10 8 C8.02 7.34 6.04 6.68 4 6 C4 5.34 4 4.68 4 4 C2.68 3.67 1.36 3.34 0 3 C0 2.01 0 1.02 0 0 Z " fill="#7DECD7" transform="translate(424,266)"/>
<path d="M0 0 C0.99 0 1.98 0 3 0 C1.59920813 4.48253399 -0.90008125 7.57527345 -3.85546875 11.1328125 C-4.23316406 11.74898438 -4.61085938 12.36515625 -5 13 C-4.67 13.99 -4.34 14.98 -4 16 C-5.65 15.67 -7.3 15.34 -9 15 C-9 11 -9 11 -6.75 8.625 C-5.8425 7.75875 -4.935 6.8925 -4 6 C-3.29875 4.906875 -2.5975 3.81375 -1.875 2.6875 C-1.25625 1.800625 -0.6375 0.91375 0 0 Z " fill="#F148A9" transform="translate(446,323)"/>
<path d="M0 0 C0.66 0 1.32 0 2 0 C1.5875 1.216875 1.175 2.43375 0.75 3.6875 C-1.27658936 9.75757149 -3.13608633 15.87841551 -5 22 C-5.66 22 -6.32 22 -7 22 C-6.96241221 13.50515863 -4.11812484 7.3295066 0 0 Z " fill="#81E4D1" transform="translate(369,280)"/>
<path d="M0 0 C2.31 0 4.62 0 7 0 C5.02 0.99 5.02 0.99 3 2 C3.020625 3.19625 3.04125 4.3925 3.0625 5.625 C3.06882571 9.18004869 2.69888875 12.50555624 2 16 C3.65 16 5.3 16 7 16 C7 16.66 7 17.32 7 18 C4.69 18 2.38 18 0 18 C0 12.06 0 6.12 0 0 Z " fill="#9DB3C6" transform="translate(222,253)"/>
<path d="M0 0 C2.31 0 4.62 0 7 0 C7 2.31 7 4.62 7 7 C4.69 7 2.38 7 0 7 C0 4.69 0 2.38 0 0 Z " fill="#FF48B0" transform="translate(128,341)"/>
<path d="M0 0 C2.31 0 4.62 0 7 0 C7 4.29 7 8.58 7 13 C6.67 13 6.34 13 6 13 C6 10.69 6 8.38 6 6 C4.02 6 2.04 6 0 6 C0 4.02 0 2.04 0 0 Z " fill="#90D4CA" transform="translate(81,316)"/>
<path d="M0 0 C4.29 0 8.58 0 13 0 C13 2.31 13 4.62 13 7 C11.02 7 9.04 7 7 7 C7 5.02 7 3.04 7 1 C4.69 1 2.38 1 0 1 C0 0.67 0 0.34 0 0 Z " fill="#786761" transform="translate(456,284)"/>
<path d="M0 0 C0 0.66 0 1.32 0 2 C0.99 2 1.98 2 3 2 C3 3.65 3 5.3 3 7 C0.525 6.505 0.525 6.505 -2 6 C-2 4.68 -2 3.36 -2 2 C-8.93 2 -15.86 2 -23 2 C-23 1.67 -23 1.34 -23 1 C-19.54170353 0.83256252 -16.08335707 0.66618079 -12.625 0.5 C-11.64015625 0.45230469 -10.6553125 0.40460938 -9.640625 0.35546875 C-8.69960938 0.31035156 -7.75859375 0.26523437 -6.7890625 0.21875 C-5.91975098 0.17685547 -5.05043945 0.13496094 -4.15478516 0.09179688 C-2.77077412 0.03283606 -1.38526637 0 0 0 Z " fill="#888D8C" transform="translate(393,262)"/>
<path d="M0 0 C2.31 0 4.62 0 7 0 C7 2.31 7 4.62 7 7 C4.69 7 2.38 7 0 7 C0 4.69 0 2.38 0 0 Z " fill="#0D0D0D" transform="translate(320,222)"/>
<path d="M0 0 C2.31 0 4.62 0 7 0 C7 2.31 7 4.62 7 7 C4.69 7 2.38 7 0 7 C0 4.69 0 2.38 0 0 Z " fill="#FF40AD" transform="translate(70,195)"/>
<path d="M0 0 C0 2.31 0 4.62 0 7 C0.61875 7.103125 1.2375 7.20625 1.875 7.3125 C4 8 4 8 6 11 C3.73828125 11.2421875 3.73828125 11.2421875 1 11 C-1.01953125 9.3203125 -1.01953125 9.3203125 -2.8125 7.125 C-3.71935547 6.04605469 -3.71935547 6.04605469 -4.64453125 4.9453125 C-6 3 -6 3 -6 1 C-1.125 0 -1.125 0 0 0 Z " fill="#F0FBF8" transform="translate(371,332)"/>
<path d="M0 0 C0.66 0 1.32 0 2 0 C2 5.94 2 11.88 2 18 C1.01 18 0.02 18 -1 18 C-1.66 16.02 -2.32 14.04 -3 12 C-2.01 12 -1.02 12 0 12 C0 8.04 0 4.08 0 0 Z " fill="#A9BDCE" transform="translate(213,253)"/>
<path d="M0 0 C2.64 0 5.28 0 8 0 C8 0.66 8 1.32 8 2 C7.01 2 6.02 2 5 2 C5 7.28 5 12.56 5 18 C4.34 18 3.68 18 3 18 C3 12.72 3 7.44 3 2 C2.01 2 1.02 2 0 2 C0 1.34 0 0.68 0 0 Z " fill="#A9BDCE" transform="translate(248,253)"/>
<path d="M0 0 C3.10784731 0.96195274 5.93646849 1.96611653 8.8125 3.5 C12.25915815 5.12195677 15.41460155 5.81663846 19.14453125 6.47265625 C19.75683594 6.64667969 20.36914062 6.82070312 21 7 C21.33 7.66 21.66 8.32 22 9 C17.07002941 10.44908933 14.50810218 9.69083501 10.18945312 7.34179688 C9.19848633 6.77041992 9.19848633 6.77041992 8.1875 6.1875 C7.1675293 5.63352539 7.1675293 5.63352539 6.12695312 5.06835938 C1.15310667 2.30621334 1.15310667 2.30621334 0 0 Z " fill="#B0BBCA" transform="translate(386,249)"/>
<path d="M0 0 C5.28 0 10.56 0 16 0 C20.125 8.625 20.125 8.625 19 12 C18.67 11.01 18.34 10.02 18 9 C17.01 8.67 16.02 8.34 15 8 C14.34 6.02 13.68 4.04 13 2 C8.71 1.67 4.42 1.34 0 1 C0 0.67 0 0.34 0 0 Z " fill="#82B5AB" transform="translate(351,321)"/>
<path d="M0 0 C4.53678842 4.01829831 7.45777295 8.4936444 10 14 C10 14.66 10 15.32 10 16 C9.01 16 8.02 16 7 16 C6.28385417 14.27473958 5.56770833 12.54947917 4.8515625 10.82421875 C3.93193308 8.73466068 3.93193308 8.73466068 2 6 C1.01 6.33 0.02 6.66 -1 7 C-0.67 4.69 -0.34 2.38 0 0 Z " fill="#CF4394" transform="translate(441,179)"/>
<path d="M0 0 C0.33 0 0.66 0 1 0 C1 2.64 1 5.28 1 8 C4.465 7.505 4.465 7.505 8 7 C8.33 4.69 8.66 2.38 9 0 C9.33 0 9.66 0 10 0 C10 5.61 10 11.22 10 17 C9.67 17 9.34 17 9 17 C8.67 14.69 8.34 12.38 8 10 C5.69 9.67 3.38 9.34 1 9 C1 11.97 1 14.94 1 18 C0.67 18 0.34 18 0 18 C0 12.06 0 6.12 0 0 Z " fill="#CCD8E3" transform="translate(133,253)"/>
<path d="M0 0 C0.6875 1.8125 0.6875 1.8125 1 4 C-0.3125 5.4375 -0.3125 5.4375 -2 7 C-2.309375 7.86625 -2.61875 8.7325 -2.9375 9.625 C-4 12 -4 12 -6.125 12.8125 C-6.74375 12.874375 -7.3625 12.93625 -8 13 C-7.67 10.69 -7.34 8.38 -7 6 C-6.01 5.67 -5.02 5.34 -4 5 C-2.61423077 3.37667033 -1.27358732 1.71275535 0 0 Z " fill="#98C4C9" transform="translate(384,179)"/>
<path d="M0 0 C1.98 0 3.96 0 6 0 C6 2.31 6 4.62 6 7 C4.02 7 2.04 7 0 7 C0 4.69 0 2.38 0 0 Z " fill="#75E4CE" transform="translate(245,306)"/>
<path d="M0 0 C1.98 0 3.96 0 6 0 C6 2.31 6 4.62 6 7 C4.02 7 2.04 7 0 7 C0 4.69 0 2.38 0 0 Z " fill="#070606" transform="translate(50,301)"/>
<path d="M0 0 C0.66 0.33 1.32 0.66 2 1 C1.34 2.32 0.68 3.64 0 5 C-0.66 5 -1.32 5 -2 5 C-2.20496094 5.68707031 -2.40992188 6.37414062 -2.62109375 7.08203125 C-2.89050781 7.98308594 -3.15992188 8.88414062 -3.4375 9.8125 C-3.70433594 10.70582031 -3.97117187 11.59914063 -4.24609375 12.51953125 C-4.80387873 14.35473055 -5.39344575 16.18033726 -6 18 C-6.66 18 -7.32 18 -8 18 C-7.50569398 13.0569398 -6.63109975 9.25023806 -4 5 C-3.01 4.67 -2.02 4.34 -1 4 C-0.26676204 1.98491642 -0.26676204 1.98491642 0 0 Z " fill="#86E6D4" transform="translate(381,283)"/>
<path d="M0 0 C0.66 0.33 1.32 0.66 2 1 C-1.67227811 6.25639808 -4.88175714 8.8421586 -11.046875 10.6875 C-13 11 -13 11 -15 10 C-14.16855469 9.52949219 -13.33710938 9.05898438 -12.48046875 8.57421875 C-11.39378906 7.95160156 -10.30710937 7.32898438 -9.1875 6.6875 C-8.10855469 6.07261719 -7.02960938 5.45773437 -5.91796875 4.82421875 C-3.55359169 3.34608744 -1.81952282 2.07489444 0 0 Z " fill="#D63390" transform="translate(444,342)"/>
<path d="M0 0 C2.6855594 2.6855594 3.06049974 5.37621328 4 9 C3 10 3 10 1.15234375 10.09765625 C-0.8984375 10.06510417 -2.94921875 10.03255208 -5 10 C-5 9.01 -5 8.02 -5 7 C-3.35 7 -1.7 7 0 7 C0 4.69 0 2.38 0 0 Z " fill="#FA6DBF" transform="translate(367,224)"/>
<path d="M0 0 C3.75 0.1875 3.75 0.1875 7 1 C7 1.99 7 2.98 7 4 C5.453125 4.0928125 5.453125 4.0928125 3.875 4.1875 C-0.88462827 5.18548657 -2.53592963 6.70490867 -6 10 C-4.63056526 6.00581534 -3.13596005 2.88169302 0 0 Z " fill="#315C54" transform="translate(377,272)"/>
<path d="M0 0 C1.2065625 0.0309375 1.2065625 0.0309375 2.4375 0.0625 C2.4375 2.7025 2.4375 5.3425 2.4375 8.0625 C0.4575 7.4025 -1.5225 6.7425 -3.5625 6.0625 C-3.605221 4.39638095 -3.60313832 2.72867115 -3.5625 1.0625 C-2.5625 0.0625 -2.5625 0.0625 0 0 Z " fill="#02090D" transform="translate(245.5625,259.9375)"/>
<path d="M0 0 C-2.90252781 2.90252781 -6.03697076 3.52491759 -10 4 C-14.35942765 3.87544492 -18.66741349 3.48873689 -23 3 C-23 2.67 -23 2.34 -23 2 C-20.47980028 1.66114962 -17.95901484 1.32879665 -15.4375 1 C-14.73302734 0.90460938 -14.02855469 0.80921875 -13.30273438 0.7109375 C-8.82632145 0.13333583 -4.51338762 -0.09489383 0 0 Z " fill="#E051A4" transform="translate(431,255)"/>
<path d="M0 0 C0.74609375 1.734375 0.74609375 1.734375 1 4 C-0.65234375 6.140625 -0.65234375 6.140625 -2.9375 8.25 C-3.68902344 8.95640625 -4.44054687 9.6628125 -5.21484375 10.390625 C-5.80394531 10.92171875 -6.39304687 11.4528125 -7 12 C-7 8.42424104 -5.91159393 6.94704065 -4 4 C-4.66 4 -5.32 4 -6 4 C-6 3.01 -6 2.02 -6 1 C-5.01 1 -4.02 1 -3 1 C-3 1.66 -3 2.32 -3 3 C-2.34 3 -1.68 3 -1 3 C-0.67 2.01 -0.34 1.02 0 0 Z " fill="#C3468D" transform="translate(450,237)"/>
<path d="M0 0 C1.32 0 2.64 0 4 0 C4 0.66 4 1.32 4 2 C6.31 2.33 8.62 2.66 11 3 C10.01 3.33 9.02 3.66 8 4 C6.8553125 4.5259375 6.8553125 4.5259375 5.6875 5.0625 C2.64689587 6.12317586 0.19747958 6.14871998 -3 6 C-2.01 5.67 -1.02 5.34 0 5 C0 3.35 0 1.7 0 0 Z " fill="#541D3C" transform="translate(423,340)"/>
<path d="M0 0 C0.33 0 0.66 0 1 0 C0.67 4.29 0.34 8.58 0 13 C-1.98 13 -3.96 13 -6 13 C-6 13.99 -6 14.98 -6 16 C-4.68 16.33 -3.36 16.66 -2 17 C-3.65 17 -5.3 17 -7 17 C-7 15.35 -7 13.7 -7 12 C-5.35 12 -3.7 12 -2 12 C-1.90912109 11.07767578 -1.90912109 11.07767578 -1.81640625 10.13671875 C-1.73261719 9.32847656 -1.64882813 8.52023438 -1.5625 7.6875 C-1.48128906 6.88699219 -1.40007812 6.08648437 -1.31640625 5.26171875 C-1 3 -1 3 0 0 Z " fill="#7ABAAE" transform="translate(375,192)"/>
<path d="M0 0 C1.98 0 3.96 0 6 0 C6 1.98 6 3.96 6 6 C4.02 6 2.04 6 0 6 C0 4.02 0 2.04 0 0 Z " fill="#FA34A5" transform="translate(126,312)"/>
<path d="M0 0 C1.98 0 3.96 0 6 0 C6 1.98 6 3.96 6 6 C4.02 6 2.04 6 0 6 C0 4.02 0 2.04 0 0 Z " fill="#252826" transform="translate(357,302)"/>
<path d="M0 0 C0.66 0.33 1.32 0.66 2 1 C1.06894211 1.98529428 0.12987519 2.96302444 -0.8125 3.9375 C-1.33457031 4.48277344 -1.85664063 5.02804687 -2.39453125 5.58984375 C-4 7 -4 7 -7 8 C-7.33 8.99 -7.66 9.98 -8 11 C-8.99 10.67 -9.98 10.34 -11 10 C-11 9.01 -11 8.02 -11 7 C-8.875 5.5625 -8.875 5.5625 -6 4 C-3.99419671 2.67541292 -1.99284138 1.3440093 0 0 Z " fill="#9ABBC5" transform="translate(388,276)"/>
<path d="M0 0 C1.98 0 3.96 0 6 0 C6 1.98 6 3.96 6 6 C4.02 6 2.04 6 0 6 C0 4.02 0 2.04 0 0 Z " fill="#343535" transform="translate(373,245)"/>
<path d="M0 0 C1.98 0 3.96 0 6 0 C6 1.98 6 3.96 6 6 C4.02 6 2.04 6 0 6 C0 4.02 0 2.04 0 0 Z " fill="#242826" transform="translate(357,203)"/>
<path d="M0 0 C-0.2165625 0.8353125 -0.2165625 0.8353125 -0.4375 1.6875 C-1.02769128 4.11384195 -1.523429 6.54906345 -2 9 C-3.65 8.67 -5.3 8.34 -7 8 C-6.44414399 4.1090079 -4.34122117 0 0 0 Z " fill="#D7529E" transform="translate(444,231)"/>
<path d="M0 0 C1.32 0 2.64 0 4 0 C4 2.64 4 5.28 4 8 C2.68 8 1.36 8 0 8 C0 5.36 0 2.72 0 0 Z " fill="#F9FAF8" transform="translate(358,209)"/>
<path d="M0 0 C1.98 0 3.96 0 6 0 C6 1.65 6 3.3 6 5 C4.02 5 2.04 5 0 5 C0 3.35 0 1.7 0 0 Z " fill="#201F1E" transform="translate(373,344)"/>
<path d="M0 0 C2.475 0.495 2.475 0.495 5 1 C5.33 2.98 5.66 4.96 6 7 C4.68 7 3.36 7 2 7 C1.34 4.69 0.68 2.38 0 0 Z " fill="#F6FDFB" transform="translate(360,322)"/>
<path d="M0 0 C1.65 0 3.3 0 5 0 C5 1.98 5 3.96 5 6 C3.35 6 1.7 6 0 6 C0 4.02 0 2.04 0 0 Z " fill="#9CF6E0" transform="translate(464,311)"/>
<path d="M0 0 C1.32 0 2.64 0 4 0 C4 2.64 4 5.28 4 8 C3.01 8 2.02 8 1 8 C-0.35439668 5.29120665 -0.06501451 2.99066732 0 0 Z " fill="#F9FAF9" transform="translate(358,308)"/>
<path d="M0 0 C0.66 0 1.32 0 2 0 C2.66 1.98 3.32 3.96 4 6 C3.01 6 2.02 6 1 6 C1 9.96 1 13.92 1 18 C0.67 18 0.34 18 0 18 C0 12.06 0 6.12 0 0 Z " fill="#D7E0E9" transform="translate(183,253)"/>
<path d="M0 0 C-0.99 0.495 -0.99 0.495 -2 1 C-2 2.32 -2 3.64 -2 5 C-4.31 5 -6.62 5 -9 5 C-9 4.01 -9 3.02 -9 2 C-3.375 -1.125 -3.375 -1.125 0 0 Z " fill="#DD3997" transform="translate(436,240)"/>
<path d="M0 0 C1.65 0 3.3 0 5 0 C5 1.98 5 3.96 5 6 C3.35 6 1.7 6 0 6 C0 4.02 0 2.04 0 0 Z " fill="#9EF5E0" transform="translate(464,212)"/>
<path d="M0 0 C0.66 0 1.32 0 2 0 C2.66 1.98 3.32 3.96 4 6 C3.01 6 2.02 6 1 6 C1 9.63 1 13.26 1 17 C0.67 17 0.34 17 0 17 C0 11.39 0 5.78 0 0 Z " fill="#CCD7E3" transform="translate(203,253)"/>
<path d="M0 0 C0.33 0.66 0.66 1.32 1 2 C1.99 2 2.98 2 4 2 C4 3.65 4 5.3 4 7 C2.35 7 0.7 7 -1 7 C-1.33 5.02 -1.66 3.04 -2 1 C-1.34 0.67 -0.68 0.34 0 0 Z " fill="#6F7372" transform="translate(392,163)"/>
<path d="M0 0 C3.15179419 0.70933651 6.06396371 1.73899002 9.0625 2.9375 C10.34833984 3.44603516 10.34833984 3.44603516 11.66015625 3.96484375 C14 5 14 5 17 7 C10.95824947 6.56844639 6.10986905 5.37684613 1 2 C0.67 1.34 0.34 0.68 0 0 Z " fill="#97CDCB" transform="translate(386,348)"/>
<path d="M0 0 C1 4 1 4 0 6 C1.32 6 2.64 6 4 6 C4 7.32 4 8.64 4 10 C2.68 10 1.36 10 0 10 C0 9.34 0 8.68 0 8 C-0.66 8 -1.32 8 -2 8 C-1.34 5.36 -0.68 2.72 0 0 Z " fill="#3C766B" transform="translate(368,186)"/>
<path d="M0 0 C0.99 0.33 1.98 0.66 3 1 C2.525625 1.598125 2.05125 2.19625 1.5625 2.8125 C-0.16465744 5.00382924 -0.16465744 5.00382924 -1 8 C-1.66 8 -2.32 8 -3 8 C-3.33 9.32 -3.66 10.64 -4 12 C-4.66 12 -5.32 12 -6 12 C-4.68139111 7.38486888 -2.78644563 3.90102388 0 0 Z " fill="#8FE8D7" transform="translate(371,178)"/>
<path d="M0 0 C1.98 0.99 3.96 1.98 6 3 C6 3.33 6 3.66 6 4 C1.05 4 -3.9 4 -9 4 C-9.33 3.34 -9.66 2.68 -10 2 C-7.03 2.33 -4.06 2.66 -1 3 C-0.67 2.01 -0.34 1.02 0 0 Z " fill="#3A3740" transform="translate(389,339)"/>
<path d="M0 0 C-2.97 2.97 -5.94 5.94 -9 9 C-9 6 -9 6 -7 4 C-6.835 3.319375 -6.67 2.63875 -6.5 1.9375 C-6.335 1.298125 -6.17 0.65875 -6 0 C-4 -1 -4 -1 0 0 Z " fill="#D2FEF5" transform="translate(391,179)"/>
<path d="M0 0 C0.33 0 0.66 0 1 0 C1.02708567 1.60407328 1.04643483 3.2082785 1.0625 4.8125 C1.07410156 5.70582031 1.08570313 6.59914063 1.09765625 7.51953125 C1 10 1 10 0 13 C-0.66 13 -1.32 13 -2 13 C-1.85851011 11.3954444 -1.71164314 9.79136233 -1.5625 8.1875 C-1.48128906 7.29417969 -1.40007812 6.40085937 -1.31640625 5.48046875 C-1 3 -1 3 0 0 Z " fill="#92F8E4" transform="translate(364,289)"/>
<path d="M0 0 C1.65 0 3.3 0 5 0 C5 1.65 5 3.3 5 5 C3.35 5 1.7 5 0 5 C0 3.35 0 1.7 0 0 Z " fill="#6FDAC6" transform="translate(377,235)"/>
<path d="M0 0 C1.70840281 1.63412443 2.93453047 2.86906094 4 5 C4.99 5.33 5.98 5.66 7 6 C7 7.65 7 9.3 7 11 C6.34 11 5.68 11 5 11 C4.16151196 9.54462432 3.32936066 8.08559627 2.5 6.625 C1.80390625 5.40683594 1.80390625 5.40683594 1.09375 4.1640625 C0 2 0 2 0 0 Z " fill="#B4C5D4" transform="translate(187,259)"/>
<path d="M0 0 C2.475 0.99 2.475 0.99 5 2 C5 2.66 5 3.32 5 4 C0.38 4 -4.24 4 -9 4 C-9 3.67 -9 3.34 -9 3 C-5.92382812 2.70703125 -5.92382812 2.70703125 -2.84765625 2.4140625 C-2.23792969 2.27742187 -1.62820313 2.14078125 -1 2 C-0.67 1.34 -0.34 0.68 0 0 Z " fill="#3D2D3B" transform="translate(389,240)"/>
<path d="M0 0 C2.97246802 2.54782974 4.41535288 5.45340883 6 9 C6 9.66 6 10.32 6 11 C3 10 3 10 1.3125 7.1875 C0 4 0 4 0 0 Z " fill="#D54597" transform="translate(445,283)"/>
<path d="M0 0 C1 3 1 3 0 6 C-2.31 5.67 -4.62 5.34 -7 5 C-2.25 1.125 -2.25 1.125 0 0 Z " fill="#F549AB" transform="translate(434,337)"/>
<path d="M0 0 C1.32 0.99 2.64 1.98 4 3 C3.67 4.32 3.34 5.64 3 7 C1.68 7 0.36 7 -1 7 C-0.67 4.69 -0.34 2.38 0 0 Z " fill="#D393BC" transform="translate(441,179)"/>
<path d="M0 0 C1.32 0.33 2.64 0.66 4 1 C4 1.99 4 2.98 4 4 C4.66 4 5.32 4 6 4 C6.33 5.65 6.66 7.3 7 9 C6.34 9 5.68 9 5 9 C3.7109375 7.5390625 3.7109375 7.5390625 2.375 5.625 C1.92898438 4.99851563 1.48296875 4.37203125 1.0234375 3.7265625 C0 2 0 2 0 0 Z " fill="#EDE7E4" transform="translate(451,176)"/>
<path d="M0 0 C-1.65 0.66 -3.3 1.32 -5 2 C-4.67 2.66 -4.34 3.32 -4 4 C-5.98 4 -7.96 4 -10 4 C-9 1 -9 1 -6.6875 -0.25 C-3.90126985 -1.0275526 -2.66561622 -0.98726527 0 0 Z " fill="#2E3735" transform="translate(403,161)"/>
<path d="M0 0 C1.32 0 2.64 0 4 0 C4 1.65 4 3.3 4 5 C2.68 5 1.36 5 0 5 C0 3.35 0 1.7 0 0 Z " fill="#7AEED7" transform="translate(377,334)"/>
<path d="M0 0 C0.33 1.98 0.66 3.96 1 6 C-0.65 5.67 -2.3 5.34 -4 5 C-4 3.68 -4 2.36 -4 1 C-2 0 -2 0 0 0 Z " fill="#D76CA9" transform="translate(441,333)"/>
<path d="M0 0 C1.65 0 3.3 0 5 0 C5 1.32 5 2.64 5 4 C3.35 4 1.7 4 0 4 C0 2.68 0 1.36 0 0 Z " fill="#83FFE7" transform="translate(82,317)"/>
<path d="M0 0 C1.65 0 3.3 0 5 0 C5 1.32 5 2.64 5 4 C3.35 4 1.7 4 0 4 C0 2.68 0 1.36 0 0 Z " fill="#6E6663" transform="translate(356,238)"/>
<path d="M0 0 C1.32 0 2.64 0 4 0 C4 1.65 4 3.3 4 5 C2.68 5 1.36 5 0 5 C0 3.35 0 1.7 0 0 Z " fill="#B1FFF0" transform="translate(162,182)"/>
<path d="M0 0 C1.32 0 2.64 0 4 0 C4.33 1.32 4.66 2.64 5 4 C3.35 4.33 1.7 4.66 0 5 C0 3.35 0 1.7 0 0 Z " fill="#2B101F" transform="translate(423,242)"/>
<path d="M0 0 C2.6855594 2.6855594 3.06049974 5.37621328 4 9 C3.01 9.495 3.01 9.495 2 10 C2 9.01 2 8.02 2 7 C1.34 7 0.68 7 0 7 C0 4.69 0 2.38 0 0 Z " fill="#6FB2AB" transform="translate(367,224)"/>
<path d="M0 0 C1.32 0.99 2.64 1.98 4 3 C3.67 3.66 3.34 4.32 3 5 C2.34 4.67 1.68 4.34 1 4 C1 4.99 1 5.98 1 7 C0.34 7 -0.32 7 -1 7 C-0.67 4.69 -0.34 2.38 0 0 Z " fill="#D095BC" transform="translate(441,278)"/>
<path d="M0 0 C0.33 1.32 0.66 2.64 1 4 C-0.98 4 -2.96 4 -5 4 C-5 3.01 -5 2.02 -5 1 C-2 0 -2 0 0 0 Z " fill="#293331" transform="translate(398,260)"/>
</svg>
